<?xml version="1.0" encoding="UTF-8" standalone="no"?>
<svg
   width="61mm"
   height="61mm"
   version="1.1"
   viewBox="0 0 61 61"
   id="svg12672"
   sodipodi:docname="qr_code_rpoisel_hexagon_finders.svg"
   inkscape:version="1.2.2 (b0a8486541, 2022-12-01)"
   xmlns:inkscape="http://www.inkscape.org/namespaces/inkscape"
   xmlns:sodipodi="http://sodipodi.sourceforge.net/DTD/sodipodi-0.dtd"
   xmlns="http://www.w3.org/2000/svg"
   xmlns:svg="http://www.w3.org/2000/svg">
  <defs
     id="defs12676" />
  <sodipodi:namedview
     id="namedview12674"
     pagecolor="#ffffff"
     bordercolor="#000000"
     borderopacity="0.25"
     inkscape:showpageshadow="2"
     inkscape:pageopacity="0.0"
     inkscape:pagecheckerboard="0"
     inkscape:deskcolor="#d1d1d1"
     inkscape:document-units="mm"
     showgrid="false"
     inkscape:zoom="2"
     inkscape:cx="282"
     inkscape:cy="123.75"
     inkscape:window-width="3438"
     inkscape:window-height="1390"
     inkscape:window-x="0"
     inkscape:window-y="24"
     inkscape:window-maximized="1"
     inkscape:current-layer="svg12672" />
  <g
     id="g13465"
     transform="translate(4,4)">
    <path
       d="M 0,0 H 1 V 1 H 0 Z M 1,0 H 2 V 1 H 1 Z M 2,0 H 3 V 1 H 2 Z M 3,0 H 4 V 1 H 3 Z M 4,0 H 5 V 1 H 4 Z M 5,0 H 6 V 1 H 5 Z M 6,0 H 7 V 1 H 6 Z M 8.75,0.93 H 8.25 L 8,0.5 8.25,0.07 h 0.5 L 9,0.5 Z m 8,0 h -0.5 L 16,0.5 16.25,0.07 h 0.5 L 17,0.5 Z m 2,0 h -0.5 L 18,0.5 18.25,0.07 h 0.5 L 19,0.5 Z m 1,0 h -0.5 L 19,0.5 19.25,0.07 h 0.5 L 20,0.5 Z m 3,0 h -0.5 L 22,0.5 22.25,0.07 h 0.5 L 23,0.5 Z m 2,0 h -0.5 L 24,0.5 24.25,0.07 h 0.5 L 25,0.5 Z m 1,0 h -0.5 L 25,0.5 25.25,0.07 h 0.5 L 26,0.5 Z m 1,0 h -0.5 L 26,0.5 26.25,0.07 h 0.5 L 27,0.5 Z m 2,0 h -0.5 L 28,0.5 28.25,0.07 h 0.5 L 29,0.5 Z m 1,0 h -0.5 L 29,0.5 29.25,0.07 h 0.5 L 30,0.5 Z m 1,0 h -0.5 L 30,0.5 30.25,0.07 h 0.5 L 31,0.5 Z m 1,0 h -0.5 L 31,0.5 31.25,0.07 h 0.5 L 32,0.5 Z m 2,0 h -0.5 L 33,0.5 33.25,0.07 h 0.5 L 34,0.5 Z m 4,0 h -0.5 L 37,0.5 37.25,0.07 h 0.5 L 38,0.5 Z m 5,0 h -0.5 L 42,0.5 42.25,0.07 h 0.5 L 43,0.5 Z M 46,0 h 1 v 1 h -1 z m 1,0 h 1 v 1 h -1 z m 1,0 h 1 v 1 h -1 z m 1,0 h 1 v 1 h -1 z m 1,0 h 1 v 1 h -1 z m 1,0 h 1 v 1 h -1 z m 1,0 h 1 V 1 H 52 Z M 0,1 H 1 V 2 H 0 Z M 6,1 H 7 V 2 H 6 Z M 9.75,1.93 H 9.25 L 9,1.5 9.25,1.07 h 0.5 L 10,1.5 Z m 1,0 h -0.5 L 10,1.5 10.25,1.07 h 0.5 L 11,1.5 Z m 2,0 h -0.5 L 12,1.5 12.25,1.07 h 0.5 L 13,1.5 Z m 1,0 h -0.5 L 13,1.5 13.25,1.07 h 0.5 L 14,1.5 Z m 1,0 h -0.5 L 14,1.5 14.25,1.07 h 0.5 L 15,1.5 Z m 2,0 h -0.5 L 16,1.5 16.25,1.07 h 0.5 L 17,1.5 Z m 1,0 h -0.5 L 17,1.5 17.25,1.07 h 0.5 L 18,1.5 Z m 2,0 h -0.5 L 19,1.5 19.25,1.07 h 0.5 L 20,1.5 Z m 1,0 h -0.5 L 20,1.5 20.25,1.07 h 0.5 L 21,1.5 Z m 1,0 h -0.5 L 21,1.5 21.25,1.07 h 0.5 L 22,1.5 Z m 1,0 h -0.5 L 22,1.5 22.25,1.07 h 0.5 L 23,1.5 Z m 1,0 h -0.5 L 23,1.5 23.25,1.07 h 0.5 L 24,1.5 Z m 2,0 h -0.5 L 25,1.5 25.25,1.07 h 0.5 L 26,1.5 Z m 2,0 h -0.5 L 27,1.5 27.25,1.07 h 0.5 L 28,1.5 Z m 2,0 h -0.5 L 29,1.5 29.25,1.07 h 0.5 L 30,1.5 Z m 1,0 h -0.5 L 30,1.5 30.25,1.07 h 0.5 L 31,1.5 Z m 1,0 h -0.5 L 31,1.5 31.25,1.07 h 0.5 L 32,1.5 Z m 1,0 h -0.5 L 32,1.5 32.25,1.07 h 0.5 L 33,1.5 Z m 2,0 h -0.5 L 34,1.5 34.25,1.07 h 0.5 L 35,1.5 Z m 1,0 h -0.5 L 35,1.5 35.25,1.07 h 0.5 L 36,1.5 Z m 5,0 h -0.5 L 40,1.5 40.25,1.07 h 0.5 L 41,1.5 Z m 2,0 h -0.5 L 42,1.5 42.25,1.07 h 0.5 L 43,1.5 Z m 1,0 h -0.5 L 43,1.5 43.25,1.07 h 0.5 L 44,1.5 Z M 46,1 h 1 v 1 h -1 z m 6,0 h 1 V 2 H 52 Z M 0,2 H 1 V 3 H 0 Z M 2,2 H 3 V 3 H 2 Z M 3,2 H 4 V 3 H 3 Z M 4,2 H 5 V 3 H 4 Z M 6,2 H 7 V 3 H 6 Z M 8.75,2.93 H 8.25 L 8,2.5 8.25,2.07 h 0.5 L 9,2.5 Z m 1,0 H 9.25 L 9,2.5 9.25,2.07 h 0.5 L 10,2.5 Z m 1,0 h -0.5 L 10,2.5 10.25,2.07 h 0.5 L 11,2.5 Z m 1,0 h -0.5 L 11,2.5 11.25,2.07 h 0.5 L 12,2.5 Z m 1,0 h -0.5 L 12,2.5 12.25,2.07 h 0.5 L 13,2.5 Z m 3,0 h -0.5 L 15,2.5 15.25,2.07 h 0.5 L 16,2.5 Z m 2,0 h -0.5 L 17,2.5 17.25,2.07 h 0.5 L 18,2.5 Z m 1,0 h -0.5 L 18,2.5 18.25,2.07 h 0.5 L 19,2.5 Z m 3,0 h -0.5 L 21,2.5 21.25,2.07 h 0.5 L 22,2.5 Z m 1,0 h -0.5 L 22,2.5 22.25,2.07 h 0.5 L 23,2.5 Z m 1,0 h -0.5 L 23,2.5 23.25,2.07 h 0.5 L 24,2.5 Z m 4,0 h -0.5 L 27,2.5 27.25,2.07 h 0.5 L 28,2.5 Z m 3,0 h -0.5 L 30,2.5 30.25,2.07 h 0.5 L 31,2.5 Z m 4,0 h -0.5 L 34,2.5 34.25,2.07 h 0.5 L 35,2.5 Z m 2,0 h -0.5 L 36,2.5 36.25,2.07 h 0.5 L 37,2.5 Z m 1,0 h -0.5 L 37,2.5 37.25,2.07 h 0.5 L 38,2.5 Z m 2,0 h -0.5 L 39,2.5 39.25,2.07 h 0.5 L 40,2.5 Z m 4,0 h -0.5 L 43,2.5 43.25,2.07 h 0.5 L 44,2.5 Z M 46,2 h 1 v 1 h -1 z m 2,0 h 1 v 1 h -1 z m 1,0 h 1 v 1 h -1 z m 1,0 h 1 v 1 h -1 z m 2,0 h 1 V 3 H 52 Z M 0,3 H 1 V 4 H 0 Z M 2,3 H 3 V 4 H 2 Z M 3,3 H 4 V 4 H 3 Z M 4,3 H 5 V 4 H 4 Z M 6,3 H 7 V 4 H 6 Z M 8.75,3.93 H 8.25 L 8,3.5 8.25,3.07 h 0.5 L 9,3.5 Z m 3,0 h -0.5 L 11,3.5 11.25,3.07 h 0.5 L 12,3.5 Z m 1,0 h -0.5 L 12,3.5 12.25,3.07 h 0.5 L 13,3.5 Z m 1,0 h -0.5 L 13,3.5 13.25,3.07 h 0.5 L 14,3.5 Z m 5,0 h -0.5 L 18,3.5 18.25,3.07 h 0.5 L 19,3.5 Z m 1,0 h -0.5 L 19,3.5 19.25,3.07 h 0.5 L 20,3.5 Z m 1,0 h -0.5 L 20,3.5 20.25,3.07 h 0.5 L 21,3.5 Z m 5,0 h -0.5 L 25,3.5 25.25,3.07 h 0.5 L 26,3.5 Z m 1,0 h -0.5 L 26,3.5 26.25,3.07 h 0.5 L 27,3.5 Z m 1,0 h -0.5 L 27,3.5 27.25,3.07 h 0.5 L 28,3.5 Z m 2,0 h -0.5 L 29,3.5 29.25,3.07 h 0.5 L 30,3.5 Z m 1,0 h -0.5 L 30,3.5 30.25,3.07 h 0.5 L 31,3.5 Z m 1,0 h -0.5 L 31,3.5 31.25,3.07 h 0.5 L 32,3.5 Z m 3,0 h -0.5 L 34,3.5 34.25,3.07 h 0.5 L 35,3.5 Z m 1,0 h -0.5 L 35,3.5 35.25,3.07 h 0.5 L 36,3.5 Z m 1,0 h -0.5 L 36,3.5 36.25,3.07 h 0.5 L 37,3.5 Z m 2,0 h -0.5 L 38,3.5 38.25,3.07 h 0.5 L 39,3.5 Z m 4,0 h -0.5 L 42,3.5 42.25,3.07 h 0.5 L 43,3.5 Z m 2,0 h -0.5 L 44,3.5 44.25,3.07 h 0.5 L 45,3.5 Z M 46,3 h 1 v 1 h -1 z m 2,0 h 1 v 1 h -1 z m 1,0 h 1 v 1 h -1 z m 1,0 h 1 v 1 h -1 z m 2,0 h 1 V 4 H 52 Z M 0,4 H 1 V 5 H 0 Z M 2,4 H 3 V 5 H 2 Z M 3,4 H 4 V 5 H 3 Z M 4,4 H 5 V 5 H 4 Z M 6,4 H 7 V 5 H 6 Z M 8.75,4.93 H 8.25 L 8,4.5 8.25,4.07 h 0.5 L 9,4.5 Z m 1,0 H 9.25 L 9,4.5 9.25,4.07 h 0.5 L 10,4.5 Z m 4,0 h -0.5 L 13,4.5 13.25,4.07 h 0.5 L 14,4.5 Z m 1,0 h -0.5 L 14,4.5 14.25,4.07 h 0.5 L 15,4.5 Z m 1,0 h -0.5 L 15,4.5 15.25,4.07 h 0.5 L 16,4.5 Z m 2,0 h -0.5 L 17,4.5 17.25,4.07 h 0.5 L 18,4.5 Z m 1,0 h -0.5 L 18,4.5 18.25,4.07 h 0.5 L 19,4.5 Z m 1,0 h -0.5 L 19,4.5 19.25,4.07 h 0.5 L 20,4.5 Z m 1,0 h -0.5 L 20,4.5 20.25,4.07 h 0.5 L 21,4.5 Z m 2,0 h -0.5 L 22,4.5 22.25,4.07 h 0.5 L 23,4.5 Z m 2,0 h -0.5 L 24,4.5 24.25,4.07 h 0.5 L 25,4.5 Z m 1,0 h -0.5 L 25,4.5 25.25,4.07 h 0.5 L 26,4.5 Z m 1,0 h -0.5 L 26,4.5 26.25,4.07 h 0.5 L 27,4.5 Z m 1,0 h -0.5 L 27,4.5 27.25,4.07 h 0.5 L 28,4.5 Z m 1,0 h -0.5 L 28,4.5 28.25,4.07 h 0.5 L 29,4.5 Z m 4,0 h -0.5 L 32,4.5 32.25,4.07 h 0.5 L 33,4.5 Z m 1,0 h -0.5 L 33,4.5 33.25,4.07 h 0.5 L 34,4.5 Z m 3,0 h -0.5 L 36,4.5 36.25,4.07 h 0.5 L 37,4.5 Z m 1,0 h -0.5 L 37,4.5 37.25,4.07 h 0.5 L 38,4.5 Z m 1,0 h -0.5 L 38,4.5 38.25,4.07 h 0.5 L 39,4.5 Z m 1,0 h -0.5 L 39,4.5 39.25,4.07 h 0.5 L 40,4.5 Z m 2,0 h -0.5 L 41,4.5 41.25,4.07 h 0.5 L 42,4.5 Z m 1,0 h -0.5 L 42,4.5 42.25,4.07 h 0.5 L 43,4.5 Z M 46,4 h 1 v 1 h -1 z m 2,0 h 1 v 1 h -1 z m 1,0 h 1 v 1 h -1 z m 1,0 h 1 v 1 h -1 z m 2,0 h 1 V 5 H 52 Z M 0,5 H 1 V 6 H 0 Z M 6,5 H 7 V 6 H 6 Z M 9.75,5.93 H 9.25 L 9,5.5 9.25,5.07 h 0.5 L 10,5.5 Z m 2,0 h -0.5 L 11,5.5 11.25,5.07 h 0.5 L 12,5.5 Z m 2,0 h -0.5 L 13,5.5 13.25,5.07 h 0.5 L 14,5.5 Z m 4,0 h -0.5 L 17,5.5 17.25,5.07 h 0.5 L 18,5.5 Z m 1,0 h -0.5 L 18,5.5 18.25,5.07 h 0.5 L 19,5.5 Z m 1,0 h -0.5 L 19,5.5 19.25,5.07 h 0.5 L 20,5.5 Z m 3,0 h -0.5 L 22,5.5 22.25,5.07 h 0.5 L 23,5.5 Z m 2,0 h -0.5 L 24,5.5 24.25,5.07 h 0.5 L 25,5.5 Z m 4,0 h -0.5 L 28,5.5 28.25,5.07 h 0.5 L 29,5.5 Z m 1,0 h -0.5 L 29,5.5 29.25,5.07 h 0.5 L 30,5.5 Z m 4,0 h -0.5 L 33,5.5 33.25,5.07 h 0.5 L 34,5.5 Z m 2,0 h -0.5 L 35,5.5 35.25,5.07 h 0.5 L 36,5.5 Z m 1,0 h -0.5 L 36,5.5 36.25,5.07 h 0.5 L 37,5.5 Z m 1,0 h -0.5 L 37,5.5 37.25,5.07 h 0.5 L 38,5.5 Z m 2,0 h -0.5 L 39,5.5 39.25,5.07 h 0.5 L 40,5.5 Z m 1,0 h -0.5 L 40,5.5 40.25,5.07 h 0.5 L 41,5.5 Z m 2,0 h -0.5 L 42,5.5 42.25,5.07 h 0.5 L 43,5.5 Z M 46,5 h 1 v 1 h -1 z m 6,0 h 1 V 6 H 52 Z M 0,6 H 1 V 7 H 0 Z M 1,6 H 2 V 7 H 1 Z M 2,6 H 3 V 7 H 2 Z M 3,6 H 4 V 7 H 3 Z M 4,6 H 5 V 7 H 4 Z M 5,6 H 6 V 7 H 5 Z M 6,6 H 7 V 7 H 6 Z M 8.75,6.93 H 8.25 L 8,6.5 8.25,6.07 h 0.5 L 9,6.5 Z m 2,0 h -0.5 L 10,6.5 10.25,6.07 h 0.5 L 11,6.5 Z m 2,0 h -0.5 L 12,6.5 12.25,6.07 h 0.5 L 13,6.5 Z m 2,0 h -0.5 L 14,6.5 14.25,6.07 h 0.5 L 15,6.5 Z m 2,0 h -0.5 L 16,6.5 16.25,6.07 h 0.5 L 17,6.5 Z m 2,0 h -0.5 L 18,6.5 18.25,6.07 h 0.5 L 19,6.5 Z m 2,0 h -0.5 L 20,6.5 20.25,6.07 h 0.5 L 21,6.5 Z m 2,0 h -0.5 L 22,6.5 22.25,6.07 h 0.5 L 23,6.5 Z m 2,0 h -0.5 L 24,6.5 24.25,6.07 h 0.5 L 25,6.5 Z m 2,0 h -0.5 L 26,6.5 26.25,6.07 h 0.5 L 27,6.5 Z m 2,0 h -0.5 L 28,6.5 28.25,6.07 h 0.5 L 29,6.5 Z m 2,0 h -0.5 L 30,6.5 30.25,6.07 h 0.5 L 31,6.5 Z m 2,0 h -0.5 L 32,6.5 32.25,6.07 h 0.5 L 33,6.5 Z m 2,0 h -0.5 L 34,6.5 34.25,6.07 h 0.5 L 35,6.5 Z m 2,0 h -0.5 L 36,6.5 36.25,6.07 h 0.5 L 37,6.5 Z m 2,0 h -0.5 L 38,6.5 38.25,6.07 h 0.5 L 39,6.5 Z m 2,0 h -0.5 L 40,6.5 40.25,6.07 h 0.5 L 41,6.5 Z m 2,0 h -0.5 L 42,6.5 42.25,6.07 h 0.5 L 43,6.5 Z m 2,0 h -0.5 L 44,6.5 44.25,6.07 h 0.5 L 45,6.5 Z M 46,6 h 1 v 1 h -1 z m 1,0 h 1 v 1 h -1 z m 1,0 h 1 v 1 h -1 z m 1,0 h 1 v 1 h -1 z m 1,0 h 1 v 1 h -1 z m 1,0 h 1 v 1 h -1 z m 1,0 h 1 V 7 H 52 Z M 9.75,7.93 H 9.25 L 9,7.5 9.25,7.07 h 0.5 L 10,7.5 Z m 1,0 h -0.5 L 10,7.5 10.25,7.07 h 0.5 L 11,7.5 Z m 2,0 h -0.5 L 12,7.5 12.25,7.07 h 0.5 L 13,7.5 Z m 1,0 h -0.5 L 13,7.5 13.25,7.07 h 0.5 L 14,7.5 Z m 1,0 h -0.5 L 14,7.5 14.25,7.07 h 0.5 L 15,7.5 Z m 2,0 h -0.5 L 16,7.5 16.25,7.07 h 0.5 L 17,7.5 Z m 1,0 h -0.5 L 17,7.5 17.25,7.07 h 0.5 L 18,7.5 Z m 1,0 h -0.5 L 18,7.5 18.25,7.07 h 0.5 L 19,7.5 Z m 2,0 h -0.5 L 20,7.5 20.25,7.07 h 0.5 L 21,7.5 Z m 1,0 h -0.5 L 21,7.5 21.25,7.07 h 0.5 L 22,7.5 Z m 1,0 h -0.5 L 22,7.5 22.25,7.07 h 0.5 L 23,7.5 Z m 2,0 h -0.5 L 24,7.5 24.25,7.07 h 0.5 L 25,7.5 Z m 4,0 h -0.5 L 28,7.5 28.25,7.07 h 0.5 L 29,7.5 Z m 2,0 h -0.5 L 30,7.5 30.25,7.07 h 0.5 L 31,7.5 Z m 2,0 h -0.5 L 32,7.5 32.25,7.07 h 0.5 L 33,7.5 Z m 4,0 h -0.5 L 36,7.5 36.25,7.07 h 0.5 L 37,7.5 Z m 1,0 h -0.5 L 37,7.5 37.25,7.07 h 0.5 L 38,7.5 Z m 3,0 h -0.5 L 40,7.5 40.25,7.07 h 0.5 L 41,7.5 Z m 1,0 h -0.5 L 41,7.5 41.25,7.07 h 0.5 L 42,7.5 Z m 1,0 h -0.5 L 42,7.5 42.25,7.07 h 0.5 L 43,7.5 Z m 1,0 h -0.5 L 43,7.5 43.25,7.07 h 0.5 L 44,7.5 Z m -43,1 H 0.25 L 0,8.5 0.25,8.07 h 0.5 L 1,8.5 Z m 1,0 H 1.25 L 1,8.5 1.25,8.07 h 0.5 L 2,8.5 Z m 1,0 H 2.25 L 2,8.5 2.25,8.07 h 0.5 L 3,8.5 Z m 1,0 H 3.25 L 3,8.5 3.25,8.07 h 0.5 L 4,8.5 Z m 3,0 H 6.25 L 6,8.5 6.25,8.07 h 0.5 L 7,8.5 Z m 2,0 H 8.25 L 8,8.5 8.25,8.07 h 0.5 L 9,8.5 Z m 1,0 H 9.25 L 9,8.5 9.25,8.07 h 0.5 L 10,8.5 Z m 1,0 h -0.5 L 10,8.5 10.25,8.07 h 0.5 L 11,8.5 Z m 3,0 h -0.5 L 13,8.5 13.25,8.07 h 0.5 L 14,8.5 Z m 2,0 h -0.5 L 15,8.5 15.25,8.07 h 0.5 L 16,8.5 Z m 1,0 h -0.5 L 16,8.5 16.25,8.07 h 0.5 L 17,8.5 Z m 1,0 h -0.5 L 17,8.5 17.25,8.07 h 0.5 L 18,8.5 Z m 2,0 h -0.5 L 19,8.5 19.25,8.07 h 0.5 L 20,8.5 Z m 3,0 h -0.5 L 22,8.5 22.25,8.07 h 0.5 L 23,8.5 Z m 2,0 h -0.5 L 24,8.5 24.25,8.07 h 0.5 L 25,8.5 Z m 1,0 h -0.5 L 25,8.5 25.25,8.07 h 0.5 L 26,8.5 Z m 1,0 h -0.5 L 26,8.5 26.25,8.07 h 0.5 L 27,8.5 Z m 1,0 h -0.5 L 27,8.5 27.25,8.07 h 0.5 L 28,8.5 Z m 1,0 h -0.5 L 28,8.5 28.25,8.07 h 0.5 L 29,8.5 Z m 1,0 h -0.5 L 29,8.5 29.25,8.07 h 0.5 L 30,8.5 Z m 5,0 h -0.5 L 34,8.5 34.25,8.07 h 0.5 L 35,8.5 Z m 1,0 h -0.5 L 35,8.5 35.25,8.07 h 0.5 L 36,8.5 Z m 2,0 h -0.5 L 37,8.5 37.25,8.07 h 0.5 L 38,8.5 Z m 1,0 h -0.5 L 38,8.5 38.25,8.07 h 0.5 L 39,8.5 Z m 1,0 h -0.5 L 39,8.5 39.25,8.07 h 0.5 L 40,8.5 Z m 1,0 h -0.5 L 40,8.5 40.25,8.07 h 0.5 L 41,8.5 Z m 2,0 h -0.5 L 42,8.5 42.25,8.07 h 0.5 L 43,8.5 Z m 1,0 h -0.5 L 43,8.5 43.25,8.07 h 0.5 L 44,8.5 Z m 2,0 h -0.5 L 45,8.5 45.25,8.07 h 0.5 L 46,8.5 Z m 3,0 h -0.5 L 48,8.5 48.25,8.07 h 0.5 L 49,8.5 Z m 1,0 h -0.5 L 49,8.5 49.25,8.07 h 0.5 L 50,8.5 Z m 1,0 h -0.5 L 50,8.5 50.25,8.07 h 0.5 L 51,8.5 Z m 2,0 h -0.5 L 52,8.5 52.25,8.07 h 0.5 L 53,8.5 Z m -50,1 H 2.25 L 2,9.5 2.25,9.07 h 0.5 L 3,9.5 Z m 3,0 H 5.25 L 5,9.5 5.25,9.07 h 0.5 L 6,9.5 Z m 2,0 H 7.25 L 7,9.5 7.25,9.07 h 0.5 L 8,9.5 Z m 1,0 H 8.25 L 8,9.5 8.25,9.07 h 0.5 L 9,9.5 Z m 4,0 h -0.5 L 12,9.5 12.25,9.07 h 0.5 L 13,9.5 Z m 1,0 h -0.5 L 13,9.5 13.25,9.07 h 0.5 L 14,9.5 Z m 2,0 h -0.5 L 15,9.5 15.25,9.07 h 0.5 L 16,9.5 Z m 3,0 h -0.5 L 18,9.5 18.25,9.07 h 0.5 L 19,9.5 Z m 1,0 h -0.5 L 19,9.5 19.25,9.07 h 0.5 L 20,9.5 Z m 3,0 h -0.5 L 22,9.5 22.25,9.07 h 0.5 L 23,9.5 Z m 1,0 h -0.5 L 23,9.5 23.25,9.07 h 0.5 L 24,9.5 Z m 1,0 h -0.5 L 24,9.5 24.25,9.07 h 0.5 L 25,9.5 Z m 1,0 h -0.5 L 25,9.5 25.25,9.07 h 0.5 L 26,9.5 Z m 2,0 h -0.5 L 27,9.5 27.25,9.07 h 0.5 L 28,9.5 Z m 1,0 h -0.5 L 28,9.5 28.25,9.07 h 0.5 L 29,9.5 Z m 1,0 h -0.5 L 29,9.5 29.25,9.07 h 0.5 L 30,9.5 Z m 1,0 h -0.5 L 30,9.5 30.25,9.07 h 0.5 L 31,9.5 Z m 2,0 h -0.5 L 32,9.5 32.25,9.07 h 0.5 L 33,9.5 Z m 3,0 h -0.5 L 35,9.5 35.25,9.07 h 0.5 L 36,9.5 Z m 1,0 h -0.5 L 36,9.5 36.25,9.07 h 0.5 L 37,9.5 Z m 1,0 h -0.5 L 37,9.5 37.25,9.07 h 0.5 L 38,9.5 Z m 4,0 h -0.5 L 41,9.5 41.25,9.07 h 0.5 L 42,9.5 Z m 1,0 h -0.5 L 42,9.5 42.25,9.07 h 0.5 L 43,9.5 Z m 5,0 h -0.5 L 47,9.5 47.25,9.07 h 0.5 L 48,9.5 Z m 1,0 h -0.5 L 48,9.5 48.25,9.07 h 0.5 L 49,9.5 Z m 1,0 h -0.5 L 49,9.5 49.25,9.07 h 0.5 L 50,9.5 Z m 1,0 h -0.5 L 50,9.5 50.25,9.07 h 0.5 L 51,9.5 Z m 1,0 h -0.5 L 51,9.5 51.25,9.07 h 0.5 L 52,9.5 Z m -49,1 H 2.25 L 2,10.5 2.25,10.07 h 0.5 L 3,10.5 Z m 1,0 H 3.25 L 3,10.5 3.25,10.07 h 0.5 L 4,10.5 Z m 1,0 H 4.25 L 4,10.5 4.25,10.07 h 0.5 L 5,10.5 Z m 1,0 H 5.25 L 5,10.5 5.25,10.07 h 0.5 L 6,10.5 Z m 1,0 H 6.25 L 6,10.5 6.25,10.07 h 0.5 L 7,10.5 Z m 4,0 h -0.5 L 10,10.5 10.25,10.07 h 0.5 L 11,10.5 Z m 1,0 h -0.5 L 11,10.5 11.25,10.07 h 0.5 L 12,10.5 Z m 1,0 h -0.5 L 12,10.5 12.25,10.07 h 0.5 L 13,10.5 Z m 2,0 h -0.5 L 14,10.5 14.25,10.07 h 0.5 L 15,10.5 Z m 1,0 h -0.5 L 15,10.5 15.25,10.07 h 0.5 L 16,10.5 Z m 2,0 h -0.5 L 17,10.5 17.25,10.07 h 0.5 L 18,10.5 Z m 7,0 h -0.5 L 24,10.5 24.25,10.07 h 0.5 L 25,10.5 Z m 1,0 h -0.5 L 25,10.5 25.25,10.07 h 0.5 L 26,10.5 Z m 1,0 h -0.5 L 26,10.5 26.25,10.07 h 0.5 L 27,10.5 Z m 1,0 h -0.5 L 27,10.5 27.25,10.07 h 0.5 L 28,10.5 Z m 2,0 h -0.5 L 29,10.5 29.25,10.07 h 0.5 L 30,10.5 Z m 1,0 h -0.5 L 30,10.5 30.25,10.07 h 0.5 L 31,10.5 Z m 3,0 h -0.5 L 33,10.5 33.25,10.07 h 0.5 L 34,10.5 Z m 8,0 h -0.5 L 41,10.5 41.25,10.07 h 0.5 L 42,10.5 Z m 3,0 h -0.5 L 44,10.5 44.25,10.07 h 0.5 L 45,10.5 Z m 1,0 h -0.5 L 45,10.5 45.25,10.07 h 0.5 L 46,10.5 Z m 4,0 h -0.5 L 49,10.5 49.25,10.07 h 0.5 L 50,10.5 Z m 2,0 h -0.5 L 51,10.5 51.25,10.07 h 0.5 L 52,10.5 Z m -47,1 H 4.25 L 4,11.5 4.25,11.07 h 0.5 L 5,11.5 Z m 3,0 H 7.25 L 7,11.5 7.25,11.07 h 0.5 L 8,11.5 Z m 2,0 H 9.25 L 9,11.5 9.25,11.07 h 0.5 L 10,11.5 Z m 2,0 h -0.5 L 11,11.5 11.25,11.07 h 0.5 L 12,11.5 Z m 2,0 h -0.5 L 13,11.5 13.25,11.07 h 0.5 L 14,11.5 Z m 1,0 h -0.5 L 14,11.5 14.25,11.07 h 0.5 L 15,11.5 Z m 2,0 h -0.5 L 16,11.5 16.25,11.07 h 0.5 L 17,11.5 Z m 3,0 h -0.5 L 19,11.5 19.25,11.07 h 0.5 L 20,11.5 Z m 1,0 h -0.5 L 20,11.5 20.25,11.07 h 0.5 L 21,11.5 Z m 7,0 h -0.5 L 27,11.5 27.25,11.07 h 0.5 L 28,11.5 Z m 6,0 h -0.5 L 33,11.5 33.25,11.07 h 0.5 L 34,11.5 Z m 1,0 h -0.5 L 34,11.5 34.25,11.07 h 0.5 L 35,11.5 Z m 2,0 h -0.5 L 36,11.5 36.25,11.07 h 0.5 L 37,11.5 Z m 1,0 h -0.5 L 37,11.5 37.25,11.07 h 0.5 L 38,11.5 Z m 5,0 h -0.5 L 42,11.5 42.25,11.07 h 0.5 L 43,11.5 Z m 1,0 h -0.5 L 43,11.5 43.25,11.07 h 0.5 L 44,11.5 Z m 2,0 h -0.5 L 45,11.5 45.25,11.07 h 0.5 L 46,11.5 Z m 3,0 h -0.5 L 48,11.5 48.25,11.07 h 0.5 L 49,11.5 Z m 1,0 h -0.5 L 49,11.5 49.25,11.07 h 0.5 L 50,11.5 Z m 2,0 h -0.5 L 51,11.5 51.25,11.07 h 0.5 L 52,11.5 Z m 1,0 h -0.5 L 52,11.5 52.25,11.07 h 0.5 L 53,11.5 Z m -49,1 H 3.25 L 3,12.5 3.25,12.07 h 0.5 L 4,12.5 Z m 1,0 H 4.25 L 4,12.5 4.25,12.07 h 0.5 L 5,12.5 Z m 2,0 H 6.25 L 6,12.5 6.25,12.07 h 0.5 L 7,12.5 Z m 2,0 H 8.25 L 8,12.5 8.25,12.07 h 0.5 L 9,12.5 Z m 2,0 h -0.5 L 10,12.5 10.25,12.07 h 0.5 L 11,12.5 Z m 1,0 h -0.5 L 11,12.5 11.25,12.07 h 0.5 L 12,12.5 Z m 1,0 h -0.5 L 12,12.5 12.25,12.07 h 0.5 L 13,12.5 Z m 1,0 h -0.5 L 13,12.5 13.25,12.07 h 0.5 L 14,12.5 Z m 2,0 h -0.5 L 15,12.5 15.25,12.07 h 0.5 L 16,12.5 Z m 2,0 h -0.5 L 17,12.5 17.25,12.07 h 0.5 L 18,12.5 Z m 1,0 h -0.5 L 18,12.5 18.25,12.07 h 0.5 L 19,12.5 Z m 1,0 h -0.5 L 19,12.5 19.25,12.07 h 0.5 L 20,12.5 Z m 1,0 h -0.5 L 20,12.5 20.25,12.07 h 0.5 L 21,12.5 Z m 3,0 h -0.5 L 23,12.5 23.25,12.07 h 0.5 L 24,12.5 Z m 2,0 h -0.5 L 25,12.5 25.25,12.07 h 0.5 L 26,12.5 Z m 1,0 h -0.5 L 26,12.5 26.25,12.07 h 0.5 L 27,12.5 Z m 4,0 h -0.5 L 30,12.5 30.25,12.07 h 0.5 L 31,12.5 Z m 1,0 h -0.5 L 31,12.5 31.25,12.07 h 0.5 L 32,12.5 Z m 4,0 h -0.5 L 35,12.5 35.25,12.07 h 0.5 L 36,12.5 Z m 1,0 h -0.5 L 36,12.5 36.25,12.07 h 0.5 L 37,12.5 Z m 8,0 h -0.5 L 44,12.5 44.25,12.07 h 0.5 L 45,12.5 Z m 4,0 h -0.5 L 48,12.5 48.25,12.07 h 0.5 L 49,12.5 Z m 2,0 h -0.5 L 50,12.5 50.25,12.07 h 0.5 L 51,12.5 Z m 1,0 h -0.5 L 51,12.5 51.25,12.07 h 0.5 L 52,12.5 Z m 1,0 h -0.5 L 52,12.5 52.25,12.07 h 0.5 L 53,12.5 Z m -47,1 H 5.25 L 5,13.5 5.25,13.07 h 0.5 L 6,13.5 Z m 3,0 H 8.25 L 8,13.5 8.25,13.07 h 0.5 L 9,13.5 Z m 2,0 h -0.5 L 10,13.5 10.25,13.07 h 0.5 L 11,13.5 Z m 2,0 h -0.5 L 12,13.5 12.25,13.07 h 0.5 L 13,13.5 Z m 2,0 h -0.5 L 14,13.5 14.25,13.07 h 0.5 L 15,13.5 Z m 3,0 h -0.5 L 17,13.5 17.25,13.07 h 0.5 L 18,13.5 Z m 2,0 h -0.5 L 19,13.5 19.25,13.07 h 0.5 L 20,13.5 Z m 1,0 h -0.5 L 20,13.5 20.25,13.07 h 0.5 L 21,13.5 Z m 2,0 h -0.5 L 22,13.5 22.25,13.07 h 0.5 L 23,13.5 Z m 1,0 h -0.5 L 23,13.5 23.25,13.07 h 0.5 L 24,13.5 Z m 1,0 h -0.5 L 24,13.5 24.25,13.07 h 0.5 L 25,13.5 Z m 2,0 h -0.5 L 26,13.5 26.25,13.07 h 0.5 L 27,13.5 Z m 2,0 h -0.5 L 28,13.5 28.25,13.07 h 0.5 L 29,13.5 Z m 3,0 h -0.5 L 31,13.5 31.25,13.07 h 0.5 L 32,13.5 Z m 2,0 h -0.5 L 33,13.5 33.25,13.07 h 0.5 L 34,13.5 Z m 2,0 h -0.5 L 35,13.5 35.25,13.07 h 0.5 L 36,13.5 Z m 1,0 h -0.5 L 36,13.5 36.25,13.07 h 0.5 L 37,13.5 Z m 1,0 h -0.5 L 37,13.5 37.25,13.07 h 0.5 L 38,13.5 Z m 1,0 h -0.5 L 38,13.5 38.25,13.07 h 0.5 L 39,13.5 Z m 2,0 h -0.5 L 40,13.5 40.25,13.07 h 0.5 L 41,13.5 Z m 3,0 h -0.5 L 43,13.5 43.25,13.07 h 0.5 L 44,13.5 Z m 1,0 h -0.5 L 44,13.5 44.25,13.07 h 0.5 L 45,13.5 Z m 1,0 h -0.5 L 45,13.5 45.25,13.07 h 0.5 L 46,13.5 Z m 2,0 h -0.5 L 47,13.5 47.25,13.07 h 0.5 L 48,13.5 Z m 2,0 h -0.5 L 49,13.5 49.25,13.07 h 0.5 L 50,13.5 Z m 3,0 h -0.5 L 52,13.5 52.25,13.07 h 0.5 L 53,13.5 Z m -51,1 H 1.25 L 1,14.5 1.25,14.07 h 0.5 L 2,14.5 Z m 1,0 H 2.25 L 2,14.5 2.25,14.07 h 0.5 L 3,14.5 Z m 1,0 H 3.25 L 3,14.5 3.25,14.07 h 0.5 L 4,14.5 Z m 2,0 H 5.25 L 5,14.5 5.25,14.07 h 0.5 L 6,14.5 Z m 1,0 H 6.25 L 6,14.5 6.25,14.07 h 0.5 L 7,14.5 Z m 1,0 H 7.25 L 7,14.5 7.25,14.07 h 0.5 L 8,14.5 Z m 2,0 H 9.25 L 9,14.5 9.25,14.07 h 0.5 L 10,14.5 Z m 1,0 h -0.5 L 10,14.5 10.25,14.07 h 0.5 L 11,14.5 Z m 1,0 h -0.5 L 11,14.5 11.25,14.07 h 0.5 L 12,14.5 Z m 3,0 h -0.5 L 14,14.5 14.25,14.07 h 0.5 L 15,14.5 Z m 2,0 h -0.5 L 16,14.5 16.25,14.07 h 0.5 L 17,14.5 Z m 1,0 h -0.5 L 17,14.5 17.25,14.07 h 0.5 L 18,14.5 Z m 3,0 h -0.5 L 20,14.5 20.25,14.07 h 0.5 L 21,14.5 Z m 1,0 h -0.5 L 21,14.5 21.25,14.07 h 0.5 L 22,14.5 Z m 1,0 h -0.5 L 22,14.5 22.25,14.07 h 0.5 L 23,14.5 Z m 3,0 h -0.5 L 25,14.5 25.25,14.07 h 0.5 L 26,14.5 Z m 1,0 h -0.5 L 26,14.5 26.25,14.07 h 0.5 L 27,14.5 Z m 1,0 h -0.5 L 27,14.5 27.25,14.07 h 0.5 L 28,14.5 Z m 1,0 h -0.5 L 28,14.5 28.25,14.07 h 0.5 L 29,14.5 Z m 3,0 h -0.5 L 31,14.5 31.25,14.07 h 0.5 L 32,14.5 Z m 1,0 h -0.5 L 32,14.5 32.25,14.07 h 0.5 L 33,14.5 Z m 1,0 h -0.5 L 33,14.5 33.25,14.07 h 0.5 L 34,14.5 Z m 2,0 h -0.5 L 35,14.5 35.25,14.07 h 0.5 L 36,14.5 Z m 2,0 h -0.5 L 37,14.5 37.25,14.07 h 0.5 L 38,14.5 Z m 1,0 h -0.5 L 38,14.5 38.25,14.07 h 0.5 L 39,14.5 Z m 1,0 h -0.5 L 39,14.5 39.25,14.07 h 0.5 L 40,14.5 Z m 5,0 h -0.5 L 44,14.5 44.25,14.07 h 0.5 L 45,14.5 Z m 3,0 h -0.5 L 47,14.5 47.25,14.07 h 0.5 L 48,14.5 Z m 2,0 h -0.5 L 49,14.5 49.25,14.07 h 0.5 L 50,14.5 Z m 1,0 h -0.5 L 50,14.5 50.25,14.07 h 0.5 L 51,14.5 Z m 2,0 h -0.5 L 52,14.5 52.25,14.07 h 0.5 L 53,14.5 Z m -52,1 H 0.25 L 0,15.5 0.25,15.07 h 0.5 L 1,15.5 Z m 1,0 H 1.25 L 1,15.5 1.25,15.07 h 0.5 L 2,15.5 Z m 2,0 H 3.25 L 3,15.5 3.25,15.07 h 0.5 L 4,15.5 Z m 1,0 H 4.25 L 4,15.5 4.25,15.07 h 0.5 L 5,15.5 Z m 1,0 H 5.25 L 5,15.5 5.25,15.07 h 0.5 L 6,15.5 Z m 6,0 h -0.5 L 11,15.5 11.25,15.07 h 0.5 L 12,15.5 Z m 3,0 h -0.5 L 14,15.5 14.25,15.07 h 0.5 L 15,15.5 Z m 4,0 h -0.5 L 18,15.5 18.25,15.07 h 0.5 L 19,15.5 Z m 1,0 h -0.5 L 19,15.5 19.25,15.07 h 0.5 L 20,15.5 Z m 1,0 h -0.5 L 20,15.5 20.25,15.07 h 0.5 L 21,15.5 Z m 1,0 h -0.5 L 21,15.5 21.25,15.07 h 0.5 L 22,15.5 Z m 1,0 h -0.5 L 22,15.5 22.25,15.07 h 0.5 L 23,15.5 Z m 1,0 h -0.5 L 23,15.5 23.25,15.07 h 0.5 L 24,15.5 Z m 1,0 h -0.5 L 24,15.5 24.25,15.07 h 0.5 L 25,15.5 Z m 1,0 h -0.5 L 25,15.5 25.25,15.07 h 0.5 L 26,15.5 Z m 3,0 h -0.5 L 28,15.5 28.25,15.07 h 0.5 L 29,15.5 Z m 2,0 h -0.5 L 30,15.5 30.25,15.07 h 0.5 L 31,15.5 Z m 1,0 h -0.5 L 31,15.5 31.25,15.07 h 0.5 L 32,15.5 Z m 1,0 h -0.5 L 32,15.5 32.25,15.07 h 0.5 L 33,15.5 Z m 1,0 h -0.5 L 33,15.5 33.25,15.07 h 0.5 L 34,15.5 Z m 4,0 h -0.5 L 37,15.5 37.25,15.07 h 0.5 L 38,15.5 Z m 2,0 h -0.5 L 39,15.5 39.25,15.07 h 0.5 L 40,15.5 Z m 1,0 h -0.5 L 40,15.5 40.25,15.07 h 0.5 L 41,15.5 Z m 1,0 h -0.5 L 41,15.5 41.25,15.07 h 0.5 L 42,15.5 Z m 2,0 h -0.5 L 43,15.5 43.25,15.07 h 0.5 L 44,15.5 Z m 1,0 h -0.5 L 44,15.5 44.25,15.07 h 0.5 L 45,15.5 Z m 1,0 h -0.5 L 45,15.5 45.25,15.07 h 0.5 L 46,15.5 Z m 3,0 h -0.5 L 48,15.5 48.25,15.07 h 0.5 L 49,15.5 Z m 3,0 h -0.5 L 51,15.5 51.25,15.07 h 0.5 L 52,15.5 Z m 1,0 h -0.5 L 52,15.5 52.25,15.07 h 0.5 L 53,15.5 Z m -49,1 H 3.25 L 3,16.5 3.25,16.07 h 0.5 L 4,16.5 Z m 2,0 H 5.25 L 5,16.5 5.25,16.07 h 0.5 L 6,16.5 Z m 1,0 H 6.25 L 6,16.5 6.25,16.07 h 0.5 L 7,16.5 Z m 3,0 H 9.25 L 9,16.5 9.25,16.07 h 0.5 L 10,16.5 Z m 3,0 h -0.5 L 12,16.5 12.25,16.07 h 0.5 L 13,16.5 Z m 1,0 h -0.5 L 13,16.5 13.25,16.07 h 0.5 L 14,16.5 Z m 4,0 h -0.5 L 17,16.5 17.25,16.07 h 0.5 L 18,16.5 Z m 3,0 h -0.5 L 20,16.5 20.25,16.07 h 0.5 L 21,16.5 Z m 3,0 h -0.5 L 23,16.5 23.25,16.07 h 0.5 L 24,16.5 Z m 1,0 h -0.5 L 24,16.5 24.25,16.07 h 0.5 L 25,16.5 Z m 3,0 h -0.5 L 27,16.5 27.25,16.07 h 0.5 L 28,16.5 Z m 1,0 h -0.5 L 28,16.5 28.25,16.07 h 0.5 L 29,16.5 Z m 1,0 h -0.5 L 29,16.5 29.25,16.07 h 0.5 L 30,16.5 Z m 1,0 h -0.5 L 30,16.5 30.25,16.07 h 0.5 L 31,16.5 Z m 2,0 h -0.5 L 32,16.5 32.25,16.07 h 0.5 L 33,16.5 Z m 5,0 h -0.5 L 37,16.5 37.25,16.07 h 0.5 L 38,16.5 Z m 1,0 h -0.5 L 38,16.5 38.25,16.07 h 0.5 L 39,16.5 Z m 1,0 h -0.5 L 39,16.5 39.25,16.07 h 0.5 L 40,16.5 Z m 2,0 h -0.5 L 41,16.5 41.25,16.07 h 0.5 L 42,16.5 Z m 1,0 h -0.5 L 42,16.5 42.25,16.07 h 0.5 L 43,16.5 Z m 1,0 h -0.5 L 43,16.5 43.25,16.07 h 0.5 L 44,16.5 Z m 3,0 h -0.5 L 46,16.5 46.25,16.07 h 0.5 L 47,16.5 Z m 3,0 h -0.5 L 49,16.5 49.25,16.07 h 0.5 L 50,16.5 Z m 3,0 h -0.5 L 52,16.5 52.25,16.07 h 0.5 L 53,16.5 Z m -49,1 H 3.25 L 3,17.5 3.25,17.07 h 0.5 L 4,17.5 Z m 1,0 H 4.25 L 4,17.5 4.25,17.07 h 0.5 L 5,17.5 Z m 3,0 H 7.25 L 7,17.5 7.25,17.07 h 0.5 L 8,17.5 Z m 5,0 h -0.5 L 12,17.5 12.25,17.07 h 0.5 L 13,17.5 Z m 1,0 h -0.5 L 13,17.5 13.25,17.07 h 0.5 L 14,17.5 Z m 2,0 h -0.5 L 15,17.5 15.25,17.07 h 0.5 L 16,17.5 Z m 2,0 h -0.5 L 17,17.5 17.25,17.07 h 0.5 L 18,17.5 Z m 1,0 h -0.5 L 18,17.5 18.25,17.07 h 0.5 L 19,17.5 Z m 1,0 h -0.5 L 19,17.5 19.25,17.07 h 0.5 L 20,17.5 Z m 2,0 h -0.5 L 21,17.5 21.25,17.07 h 0.5 L 22,17.5 Z m 3,0 h -0.5 L 24,17.5 24.25,17.07 h 0.5 L 25,17.5 Z m 1,0 h -0.5 L 25,17.5 25.25,17.07 h 0.5 L 26,17.5 Z m 2,0 h -0.5 L 27,17.5 27.25,17.07 h 0.5 L 28,17.5 Z m 2,0 h -0.5 L 29,17.5 29.25,17.07 h 0.5 L 30,17.5 Z m 3,0 h -0.5 L 32,17.5 32.25,17.07 h 0.5 L 33,17.5 Z m 1,0 h -0.5 L 33,17.5 33.25,17.07 h 0.5 L 34,17.5 Z m 1,0 h -0.5 L 34,17.5 34.25,17.07 h 0.5 L 35,17.5 Z m 2,0 h -0.5 L 36,17.5 36.25,17.07 h 0.5 L 37,17.5 Z m 7,0 h -0.5 L 43,17.5 43.25,17.07 h 0.5 L 44,17.5 Z m 2,0 h -0.5 L 45,17.5 45.25,17.07 h 0.5 L 46,17.5 Z m 1,0 h -0.5 L 46,17.5 46.25,17.07 h 0.5 L 47,17.5 Z m 2,0 h -0.5 L 48,17.5 48.25,17.07 h 0.5 L 49,17.5 Z m 2,0 h -0.5 L 50,17.5 50.25,17.07 h 0.5 L 51,17.5 Z m 2,0 h -0.5 L 52,17.5 52.25,17.07 h 0.5 L 53,17.5 Z m -52,1 H 0.25 L 0,18.5 0.25,18.07 h 0.5 L 1,18.5 Z m 1,0 H 1.25 L 1,18.5 1.25,18.07 h 0.5 L 2,18.5 Z m 1,0 H 2.25 L 2,18.5 2.25,18.07 h 0.5 L 3,18.5 Z m 4,0 H 6.25 L 6,18.5 6.25,18.07 h 0.5 L 7,18.5 Z m 1,0 H 7.25 L 7,18.5 7.25,18.07 h 0.5 L 8,18.5 Z m 1,0 H 8.25 L 8,18.5 8.25,18.07 h 0.5 L 9,18.5 Z m 2,0 h -0.5 L 10,18.5 10.25,18.07 h 0.5 L 11,18.5 Z m 3,0 h -0.5 L 13,18.5 13.25,18.07 h 0.5 L 14,18.5 Z m 1,0 h -0.5 L 14,18.5 14.25,18.07 h 0.5 L 15,18.5 Z m 1,0 h -0.5 L 15,18.5 15.25,18.07 h 0.5 L 16,18.5 Z m 1,0 h -0.5 L 16,18.5 16.25,18.07 h 0.5 L 17,18.5 Z m 2,0 h -0.5 L 18,18.5 18.25,18.07 h 0.5 L 19,18.5 Z m 2,0 h -0.5 L 20,18.5 20.25,18.07 h 0.5 L 21,18.5 Z m 5,0 h -0.5 L 25,18.5 25.25,18.07 h 0.5 L 26,18.5 Z m 1,0 h -0.5 L 26,18.5 26.25,18.07 h 0.5 L 27,18.5 Z m 5,0 h -0.5 L 31,18.5 31.25,18.07 h 0.5 L 32,18.5 Z m 2,0 h -0.5 L 33,18.5 33.25,18.07 h 0.5 L 34,18.5 Z m 1,0 h -0.5 L 34,18.5 34.25,18.07 h 0.5 L 35,18.5 Z m 1,0 h -0.5 L 35,18.5 35.25,18.07 h 0.5 L 36,18.5 Z m 2,0 h -0.5 L 37,18.5 37.25,18.07 h 0.5 L 38,18.5 Z m 1,0 h -0.5 L 38,18.5 38.25,18.07 h 0.5 L 39,18.5 Z m 1,0 h -0.5 L 39,18.5 39.25,18.07 h 0.5 L 40,18.5 Z m 2,0 h -0.5 L 41,18.5 41.25,18.07 h 0.5 L 42,18.5 Z m 3,0 h -0.5 L 44,18.5 44.25,18.07 h 0.5 L 45,18.5 Z m 3,0 h -0.5 L 47,18.5 47.25,18.07 h 0.5 L 48,18.5 Z m 1,0 h -0.5 L 48,18.5 48.25,18.07 h 0.5 L 49,18.5 Z m 1,0 h -0.5 L 49,18.5 49.25,18.07 h 0.5 L 50,18.5 Z m 1,0 h -0.5 L 50,18.5 50.25,18.07 h 0.5 L 51,18.5 Z m -46,1 H 4.25 L 4,19.5 4.25,19.07 h 0.5 L 5,19.5 Z m 1,0 H 5.25 L 5,19.5 5.25,19.07 h 0.5 L 6,19.5 Z m 4,0 H 9.25 L 9,19.5 9.25,19.07 h 0.5 L 10,19.5 Z m 1,0 h -0.5 L 10,19.5 10.25,19.07 h 0.5 L 11,19.5 Z m 4,0 h -0.5 L 14,19.5 14.25,19.07 h 0.5 L 15,19.5 Z m 1,0 h -0.5 L 15,19.5 15.25,19.07 h 0.5 L 16,19.5 Z m 1,0 h -0.5 L 16,19.5 16.25,19.07 h 0.5 L 17,19.5 Z m 2,0 h -0.5 L 18,19.5 18.25,19.07 h 0.5 L 19,19.5 Z m 1,0 h -0.5 L 19,19.5 19.25,19.07 h 0.5 L 20,19.5 Z m 1,0 h -0.5 L 20,19.5 20.25,19.07 h 0.5 L 21,19.5 Z m 1,0 h -0.5 L 21,19.5 21.25,19.07 h 0.5 L 22,19.5 Z m 2,0 h -0.5 L 23,19.5 23.25,19.07 h 0.5 L 24,19.5 Z m 3,0 h -0.5 L 26,19.5 26.25,19.07 h 0.5 L 27,19.5 Z m 5,0 h -0.5 L 31,19.5 31.25,19.07 h 0.5 L 32,19.5 Z m 4,0 h -0.5 L 35,19.5 35.25,19.07 h 0.5 L 36,19.5 Z m 1,0 h -0.5 L 36,19.5 36.25,19.07 h 0.5 L 37,19.5 Z m 1,0 h -0.5 L 37,19.5 37.25,19.07 h 0.5 L 38,19.5 Z m 1,0 h -0.5 L 38,19.5 38.25,19.07 h 0.5 L 39,19.5 Z m 2,0 h -0.5 L 40,19.5 40.25,19.07 h 0.5 L 41,19.5 Z m 3,0 h -0.5 L 43,19.5 43.25,19.07 h 0.5 L 44,19.5 Z m 2,0 h -0.5 L 45,19.5 45.25,19.07 h 0.5 L 46,19.5 Z m 2,0 h -0.5 L 47,19.5 47.25,19.07 h 0.5 L 48,19.5 Z m 1,0 h -0.5 L 48,19.5 48.25,19.07 h 0.5 L 49,19.5 Z m 1,0 h -0.5 L 49,19.5 49.25,19.07 h 0.5 L 50,19.5 Z m 1,0 h -0.5 L 50,19.5 50.25,19.07 h 0.5 L 51,19.5 Z m 1,0 h -0.5 L 51,19.5 51.25,19.07 h 0.5 L 52,19.5 Z m 1,0 h -0.5 L 52,19.5 52.25,19.07 h 0.5 L 53,19.5 Z m -47,1 H 5.25 L 5,20.5 5.25,20.07 h 0.5 L 6,20.5 Z m 1,0 H 6.25 L 6,20.5 6.25,20.07 h 0.5 L 7,20.5 Z m 2,0 H 8.25 L 8,20.5 8.25,20.07 h 0.5 L 9,20.5 Z m 1,0 H 9.25 L 9,20.5 9.25,20.07 h 0.5 L 10,20.5 Z m 2,0 h -0.5 L 11,20.5 11.25,20.07 h 0.5 L 12,20.5 Z m 2,0 h -0.5 L 13,20.5 13.25,20.07 h 0.5 L 14,20.5 Z m 2,0 h -0.5 L 15,20.5 15.25,20.07 h 0.5 L 16,20.5 Z m 2,0 h -0.5 L 17,20.5 17.25,20.07 h 0.5 L 18,20.5 Z m 2,0 h -0.5 L 19,20.5 19.25,20.07 h 0.5 L 20,20.5 Z m 2,0 h -0.5 L 21,20.5 21.25,20.07 h 0.5 L 22,20.5 Z m 1,0 h -0.5 L 22,20.5 22.25,20.07 h 0.5 L 23,20.5 Z m 2,0 h -0.5 L 24,20.5 24.25,20.07 h 0.5 L 25,20.5 Z m 1,0 h -0.5 L 25,20.5 25.25,20.07 h 0.5 L 26,20.5 Z m 2,0 h -0.5 L 27,20.5 27.25,20.07 h 0.5 L 28,20.5 Z m 2,0 h -0.5 L 29,20.5 29.25,20.07 h 0.5 L 30,20.5 Z m 2,0 h -0.5 L 31,20.5 31.25,20.07 h 0.5 L 32,20.5 Z m 2,0 h -0.5 L 33,20.5 33.25,20.07 h 0.5 L 34,20.5 Z m 2,0 h -0.5 L 35,20.5 35.25,20.07 h 0.5 L 36,20.5 Z m 4,0 h -0.5 L 39,20.5 39.25,20.07 h 0.5 L 40,20.5 Z m 1,0 h -0.5 L 40,20.5 40.25,20.07 h 0.5 L 41,20.5 Z m 1,0 h -0.5 L 41,20.5 41.25,20.07 h 0.5 L 42,20.5 Z m 2,0 h -0.5 L 43,20.5 43.25,20.07 h 0.5 L 44,20.5 Z m 1,0 h -0.5 L 44,20.5 44.25,20.07 h 0.5 L 45,20.5 Z m 3,0 h -0.5 L 47,20.5 47.25,20.07 h 0.5 L 48,20.5 Z m 2,0 h -0.5 L 49,20.5 49.25,20.07 h 0.5 L 50,20.5 Z m 1,0 h -0.5 L 50,20.5 50.25,20.07 h 0.5 L 51,20.5 Z m 1,0 h -0.5 L 51,20.5 51.25,20.07 h 0.5 L 52,20.5 Z m 1,0 h -0.5 L 52,20.5 52.25,20.07 h 0.5 L 53,20.5 Z m -51,1 H 1.25 L 1,21.5 1.25,21.07 h 0.5 L 2,21.5 Z m 1,0 H 2.25 L 2,21.5 2.25,21.07 h 0.5 L 3,21.5 Z m 1,0 H 3.25 L 3,21.5 3.25,21.07 h 0.5 L 4,21.5 Z m 5,0 H 8.25 L 8,21.5 8.25,21.07 h 0.5 L 9,21.5 Z m 2,0 h -0.5 L 10,21.5 10.25,21.07 h 0.5 L 11,21.5 Z m 1,0 h -0.5 L 11,21.5 11.25,21.07 h 0.5 L 12,21.5 Z m 1,0 h -0.5 L 12,21.5 12.25,21.07 h 0.5 L 13,21.5 Z m 1,0 h -0.5 L 13,21.5 13.25,21.07 h 0.5 L 14,21.5 Z m 1,0 h -0.5 L 14,21.5 14.25,21.07 h 0.5 L 15,21.5 Z m 5,0 h -0.5 L 19,21.5 19.25,21.07 h 0.5 L 20,21.5 Z m 2,0 h -0.5 L 21,21.5 21.25,21.07 h 0.5 L 22,21.5 Z m 1,0 h -0.5 L 22,21.5 22.25,21.07 h 0.5 L 23,21.5 Z m 4,0 h -0.5 L 26,21.5 26.25,21.07 h 0.5 L 27,21.5 Z m 1,0 h -0.5 L 27,21.5 27.25,21.07 h 0.5 L 28,21.5 Z m 1,0 h -0.5 L 28,21.5 28.25,21.07 h 0.5 L 29,21.5 Z m 2,0 h -0.5 L 30,21.5 30.25,21.07 h 0.5 L 31,21.5 Z m 3,0 h -0.5 L 33,21.5 33.25,21.07 h 0.5 L 34,21.5 Z m 2,0 h -0.5 L 35,21.5 35.25,21.07 h 0.5 L 36,21.5 Z m 1,0 h -0.5 L 36,21.5 36.25,21.07 h 0.5 L 37,21.5 Z m 1,0 h -0.5 L 37,21.5 37.25,21.07 h 0.5 L 38,21.5 Z m 4,0 h -0.5 L 41,21.5 41.25,21.07 h 0.5 L 42,21.5 Z m 1,0 h -0.5 L 42,21.5 42.25,21.07 h 0.5 L 43,21.5 Z m 1,0 h -0.5 L 43,21.5 43.25,21.07 h 0.5 L 44,21.5 Z m 4,0 h -0.5 L 47,21.5 47.25,21.07 h 0.5 L 48,21.5 Z m 1,0 h -0.5 L 48,21.5 48.25,21.07 h 0.5 L 49,21.5 Z m 2,0 h -0.5 L 50,21.5 50.25,21.07 h 0.5 L 51,21.5 Z m 2,0 h -0.5 L 52,21.5 52.25,21.07 h 0.5 L 53,21.5 Z m -50,1 H 2.25 L 2,22.5 2.25,22.07 h 0.5 L 3,22.5 Z m 1,0 H 3.25 L 3,22.5 3.25,22.07 h 0.5 L 4,22.5 Z m 1,0 H 4.25 L 4,22.5 4.25,22.07 h 0.5 L 5,22.5 Z m 2,0 H 6.25 L 6,22.5 6.25,22.07 h 0.5 L 7,22.5 Z m 1,0 H 7.25 L 7,22.5 7.25,22.07 h 0.5 L 8,22.5 Z m 3,0 h -0.5 L 10,22.5 10.25,22.07 h 0.5 L 11,22.5 Z m 4,0 h -0.5 L 14,22.5 14.25,22.07 h 0.5 L 15,22.5 Z m 2,0 h -0.5 L 16,22.5 16.25,22.07 h 0.5 L 17,22.5 Z m 1,0 h -0.5 L 17,22.5 17.25,22.07 h 0.5 L 18,22.5 Z m 1,0 h -0.5 L 18,22.5 18.25,22.07 h 0.5 L 19,22.5 Z m 3,0 h -0.5 L 21,22.5 21.25,22.07 h 0.5 L 22,22.5 Z m 3,0 h -0.5 L 24,22.5 24.25,22.07 h 0.5 L 25,22.5 Z m 1,0 h -0.5 L 25,22.5 25.25,22.07 h 0.5 L 26,22.5 Z m 2,0 h -0.5 L 27,22.5 27.25,22.07 h 0.5 L 28,22.5 Z m 3,0 h -0.5 L 30,22.5 30.25,22.07 h 0.5 L 31,22.5 Z m 1,0 h -0.5 L 31,22.5 31.25,22.07 h 0.5 L 32,22.5 Z m 3,0 h -0.5 L 34,22.5 34.25,22.07 h 0.5 L 35,22.5 Z m 2,0 h -0.5 L 36,22.5 36.25,22.07 h 0.5 L 37,22.5 Z m 4,0 h -0.5 L 40,22.5 40.25,22.07 h 0.5 L 41,22.5 Z m 1,0 h -0.5 L 41,22.5 41.25,22.07 h 0.5 L 42,22.5 Z m 2,0 h -0.5 L 43,22.5 43.25,22.07 h 0.5 L 44,22.5 Z m 3,0 h -0.5 L 46,22.5 46.25,22.07 h 0.5 L 47,22.5 Z m -43,1 H 3.25 L 3,23.5 3.25,23.07 h 0.5 L 4,23.5 Z m 1,0 H 4.25 L 4,23.5 4.25,23.07 h 0.5 L 5,23.5 Z m 6,0 h -0.5 L 10,23.5 10.25,23.07 h 0.5 L 11,23.5 Z m 1,0 h -0.5 L 11,23.5 11.25,23.07 h 0.5 L 12,23.5 Z m 1,0 h -0.5 L 12,23.5 12.25,23.07 h 0.5 L 13,23.5 Z m 3,0 h -0.5 L 15,23.5 15.25,23.07 h 0.5 L 16,23.5 Z m 3,0 h -0.5 L 18,23.5 18.25,23.07 h 0.5 L 19,23.5 Z m 3,0 h -0.5 L 21,23.5 21.25,23.07 h 0.5 L 22,23.5 Z m 4,0 h -0.5 L 25,23.5 25.25,23.07 h 0.5 L 26,23.5 Z m 4,0 h -0.5 L 29,23.5 29.25,23.07 h 0.5 L 30,23.5 Z m 2,0 h -0.5 L 31,23.5 31.25,23.07 h 0.5 L 32,23.5 Z m 2,0 h -0.5 L 33,23.5 33.25,23.07 h 0.5 L 34,23.5 Z m 3,0 h -0.5 L 36,23.5 36.25,23.07 h 0.5 L 37,23.5 Z m 1,0 h -0.5 L 37,23.5 37.25,23.07 h 0.5 L 38,23.5 Z m 2,0 h -0.5 L 39,23.5 39.25,23.07 h 0.5 L 40,23.5 Z m 1,0 h -0.5 L 40,23.5 40.25,23.07 h 0.5 L 41,23.5 Z m 2,0 h -0.5 L 42,23.5 42.25,23.07 h 0.5 L 43,23.5 Z m 1,0 h -0.5 L 43,23.5 43.25,23.07 h 0.5 L 44,23.5 Z m 3,0 h -0.5 L 46,23.5 46.25,23.07 h 0.5 L 47,23.5 Z m 1,0 h -0.5 L 47,23.5 47.25,23.07 h 0.5 L 48,23.5 Z m 4,0 h -0.5 L 51,23.5 51.25,23.07 h 0.5 L 52,23.5 Z m -50,1 H 1.25 L 1,24.5 1.25,24.07 h 0.5 L 2,24.5 Z m 3,0 H 4.25 L 4,24.5 4.25,24.07 h 0.5 L 5,24.5 Z m 1,0 H 5.25 L 5,24.5 5.25,24.07 h 0.5 L 6,24.5 Z m 1,0 H 6.25 L 6,24.5 6.25,24.07 h 0.5 L 7,24.5 Z m 1,0 H 7.25 L 7,24.5 7.25,24.07 h 0.5 L 8,24.5 Z m 1,0 H 8.25 L 8,24.5 8.25,24.07 h 0.5 L 9,24.5 Z m 1,0 H 9.25 L 9,24.5 9.25,24.07 h 0.5 L 10,24.5 Z m 1,0 h -0.5 L 10,24.5 10.25,24.07 h 0.5 L 11,24.5 Z m 1,0 h -0.5 L 11,24.5 11.25,24.07 h 0.5 L 12,24.5 Z m 1,0 h -0.5 L 12,24.5 12.25,24.07 h 0.5 L 13,24.5 Z m 5,0 h -0.5 L 17,24.5 17.25,24.07 h 0.5 L 18,24.5 Z m 1,0 h -0.5 L 18,24.5 18.25,24.07 h 0.5 L 19,24.5 Z m 1,0 h -0.5 L 19,24.5 19.25,24.07 h 0.5 L 20,24.5 Z m 1,0 h -0.5 L 20,24.5 20.25,24.07 h 0.5 L 21,24.5 Z m 1,0 h -0.5 L 21,24.5 21.25,24.07 h 0.5 L 22,24.5 Z m 2,0 h -0.5 L 23,24.5 23.25,24.07 h 0.5 L 24,24.5 Z m 1,0 h -0.5 L 24,24.5 24.25,24.07 h 0.5 L 25,24.5 Z m 1,0 h -0.5 L 25,24.5 25.25,24.07 h 0.5 L 26,24.5 Z m 1,0 h -0.5 L 26,24.5 26.25,24.07 h 0.5 L 27,24.5 Z m 1,0 h -0.5 L 27,24.5 27.25,24.07 h 0.5 L 28,24.5 Z m 1,0 h -0.5 L 28,24.5 28.25,24.07 h 0.5 L 29,24.5 Z m 1,0 h -0.5 L 29,24.5 29.25,24.07 h 0.5 L 30,24.5 Z m 1,0 h -0.5 L 30,24.5 30.25,24.07 h 0.5 L 31,24.5 Z m 1,0 h -0.5 L 31,24.5 31.25,24.07 h 0.5 L 32,24.5 Z m 3,0 h -0.5 L 34,24.5 34.25,24.07 h 0.5 L 35,24.5 Z m 1,0 h -0.5 L 35,24.5 35.25,24.07 h 0.5 L 36,24.5 Z m 1,0 h -0.5 L 36,24.5 36.25,24.07 h 0.5 L 37,24.5 Z m 2,0 h -0.5 L 38,24.5 38.25,24.07 h 0.5 L 39,24.5 Z m 6,0 h -0.5 L 44,24.5 44.25,24.07 h 0.5 L 45,24.5 Z m 1,0 h -0.5 L 45,24.5 45.25,24.07 h 0.5 L 46,24.5 Z m 1,0 h -0.5 L 46,24.5 46.25,24.07 h 0.5 L 47,24.5 Z m 1,0 h -0.5 L 47,24.5 47.25,24.07 h 0.5 L 48,24.5 Z m 1,0 h -0.5 L 48,24.5 48.25,24.07 h 0.5 L 49,24.5 Z m 1,0 h -0.5 L 49,24.5 49.25,24.07 h 0.5 L 50,24.5 Z m 2,0 h -0.5 L 51,24.5 51.25,24.07 h 0.5 L 52,24.5 Z m -50,1 H 1.25 L 1,25.5 1.25,25.07 h 0.5 L 2,25.5 Z m 1,0 H 2.25 L 2,25.5 2.25,25.07 h 0.5 L 3,25.5 Z m 1,0 H 3.25 L 3,25.5 3.25,25.07 h 0.5 L 4,25.5 Z m 1,0 H 4.25 L 4,25.5 4.25,25.07 h 0.5 L 5,25.5 Z m 4,0 H 8.25 L 8,25.5 8.25,25.07 h 0.5 L 9,25.5 Z m 2,0 h -0.5 L 10,25.5 10.25,25.07 h 0.5 L 11,25.5 Z m 1,0 h -0.5 L 11,25.5 11.25,25.07 h 0.5 L 12,25.5 Z m 2,0 h -0.5 L 13,25.5 13.25,25.07 h 0.5 L 14,25.5 Z m 1,0 h -0.5 L 14,25.5 14.25,25.07 h 0.5 L 15,25.5 Z m 6,0 h -0.5 L 20,25.5 20.25,25.07 h 0.5 L 21,25.5 Z m 1,0 h -0.5 L 21,25.5 21.25,25.07 h 0.5 L 22,25.5 Z m 1,0 h -0.5 L 22,25.5 22.25,25.07 h 0.5 L 23,25.5 Z m 1,0 h -0.5 L 23,25.5 23.25,25.07 h 0.5 L 24,25.5 Z m 1,0 h -0.5 L 24,25.5 24.25,25.07 h 0.5 L 25,25.5 Z m 4,0 h -0.5 L 28,25.5 28.25,25.07 h 0.5 L 29,25.5 Z m 5,0 h -0.5 L 33,25.5 33.25,25.07 h 0.5 L 34,25.5 Z m 5,0 h -0.5 L 38,25.5 38.25,25.07 h 0.5 L 39,25.5 Z m 1,0 h -0.5 L 39,25.5 39.25,25.07 h 0.5 L 40,25.5 Z m 1,0 h -0.5 L 40,25.5 40.25,25.07 h 0.5 L 41,25.5 Z m 3,0 h -0.5 L 43,25.5 43.25,25.07 h 0.5 L 44,25.5 Z m 1,0 h -0.5 L 44,25.5 44.25,25.07 h 0.5 L 45,25.5 Z m 4,0 h -0.5 L 48,25.5 48.25,25.07 h 0.5 L 49,25.5 Z m 1,0 h -0.5 L 49,25.5 49.25,25.07 h 0.5 L 50,25.5 Z m 1,0 h -0.5 L 50,25.5 50.25,25.07 h 0.5 L 51,25.5 Z m -47,1 H 3.25 L 3,26.5 3.25,26.07 h 0.5 L 4,26.5 Z m 1,0 H 4.25 L 4,26.5 4.25,26.07 h 0.5 L 5,26.5 Z m 2,0 H 6.25 L 6,26.5 6.25,26.07 h 0.5 L 7,26.5 Z m 2,0 H 8.25 L 8,26.5 8.25,26.07 h 0.5 L 9,26.5 Z m 2,0 h -0.5 L 10,26.5 10.25,26.07 h 0.5 L 11,26.5 Z m 2,0 h -0.5 L 12,26.5 12.25,26.07 h 0.5 L 13,26.5 Z m 1,0 h -0.5 L 13,26.5 13.25,26.07 h 0.5 L 14,26.5 Z m 1,0 h -0.5 L 14,26.5 14.25,26.07 h 0.5 L 15,26.5 Z m 1,0 h -0.5 L 15,26.5 15.25,26.07 h 0.5 L 16,26.5 Z m 1,0 h -0.5 L 16,26.5 16.25,26.07 h 0.5 L 17,26.5 Z m 1,0 h -0.5 L 17,26.5 17.25,26.07 h 0.5 L 18,26.5 Z m 1,0 h -0.5 L 18,26.5 18.25,26.07 h 0.5 L 19,26.5 Z m 2,0 h -0.5 L 20,26.5 20.25,26.07 h 0.5 L 21,26.5 Z m 1,0 h -0.5 L 21,26.5 21.25,26.07 h 0.5 L 22,26.5 Z m 1,0 h -0.5 L 22,26.5 22.25,26.07 h 0.5 L 23,26.5 Z m 1,0 h -0.5 L 23,26.5 23.25,26.07 h 0.5 L 24,26.5 Z m 1,0 h -0.5 L 24,26.5 24.25,26.07 h 0.5 L 25,26.5 Z m 2,0 h -0.5 L 26,26.5 26.25,26.07 h 0.5 L 27,26.5 Z m 2,0 h -0.5 L 28,26.5 28.25,26.07 h 0.5 L 29,26.5 Z m 2,0 h -0.5 L 30,26.5 30.25,26.07 h 0.5 L 31,26.5 Z m 1,0 h -0.5 L 31,26.5 31.25,26.07 h 0.5 L 32,26.5 Z m 5,0 h -0.5 L 36,26.5 36.25,26.07 h 0.5 L 37,26.5 Z m 1,0 h -0.5 L 37,26.5 37.25,26.07 h 0.5 L 38,26.5 Z m 4,0 h -0.5 L 41,26.5 41.25,26.07 h 0.5 L 42,26.5 Z m 2,0 h -0.5 L 43,26.5 43.25,26.07 h 0.5 L 44,26.5 Z m 1,0 h -0.5 L 44,26.5 44.25,26.07 h 0.5 L 45,26.5 Z m 2,0 h -0.5 L 46,26.5 46.25,26.07 h 0.5 L 47,26.5 Z m 2,0 h -0.5 L 48,26.5 48.25,26.07 h 0.5 L 49,26.5 Z m 3,0 h -0.5 L 51,26.5 51.25,26.07 h 0.5 L 52,26.5 Z m 1,0 h -0.5 L 52,26.5 52.25,26.07 h 0.5 L 53,26.5 Z m -48,1 H 4.25 L 4,27.5 4.25,27.07 h 0.5 L 5,27.5 Z m 4,0 H 8.25 L 8,27.5 8.25,27.07 h 0.5 L 9,27.5 Z m 1,0 H 9.25 L 9,27.5 9.25,27.07 h 0.5 L 10,27.5 Z m 3,0 h -0.5 L 12,27.5 12.25,27.07 h 0.5 L 13,27.5 Z m 2,0 h -0.5 L 14,27.5 14.25,27.07 h 0.5 L 15,27.5 Z m 1,0 h -0.5 L 15,27.5 15.25,27.07 h 0.5 L 16,27.5 Z m 2,0 h -0.5 L 17,27.5 17.25,27.07 h 0.5 L 18,27.5 Z m 4,0 h -0.5 L 21,27.5 21.25,27.07 h 0.5 L 22,27.5 Z m 3,0 h -0.5 L 24,27.5 24.25,27.07 h 0.5 L 25,27.5 Z m 4,0 h -0.5 L 28,27.5 28.25,27.07 h 0.5 L 29,27.5 Z m 1,0 h -0.5 L 29,27.5 29.25,27.07 h 0.5 L 30,27.5 Z m 5,0 h -0.5 L 34,27.5 34.25,27.07 h 0.5 L 35,27.5 Z m 3,0 h -0.5 L 37,27.5 37.25,27.07 h 0.5 L 38,27.5 Z m 1,0 h -0.5 L 38,27.5 38.25,27.07 h 0.5 L 39,27.5 Z m 1,0 h -0.5 L 39,27.5 39.25,27.07 h 0.5 L 40,27.5 Z m 1,0 h -0.5 L 40,27.5 40.25,27.07 h 0.5 L 41,27.5 Z m 1,0 h -0.5 L 41,27.5 41.25,27.07 h 0.5 L 42,27.5 Z m 3,0 h -0.5 L 44,27.5 44.25,27.07 h 0.5 L 45,27.5 Z m 4,0 h -0.5 L 48,27.5 48.25,27.07 h 0.5 L 49,27.5 Z m 1,0 h -0.5 L 49,27.5 49.25,27.07 h 0.5 L 50,27.5 Z m -49,1 H 0.25 L 0,28.5 0.25,28.07 h 0.5 L 1,28.5 Z m 4,0 H 4.25 L 4,28.5 4.25,28.07 h 0.5 L 5,28.5 Z m 1,0 H 5.25 L 5,28.5 5.25,28.07 h 0.5 L 6,28.5 Z m 1,0 H 6.25 L 6,28.5 6.25,28.07 h 0.5 L 7,28.5 Z m 1,0 H 7.25 L 7,28.5 7.25,28.07 h 0.5 L 8,28.5 Z m 1,0 H 8.25 L 8,28.5 8.25,28.07 h 0.5 L 9,28.5 Z m 3,0 h -0.5 L 11,28.5 11.25,28.07 h 0.5 L 12,28.5 Z m 2,0 h -0.5 L 13,28.5 13.25,28.07 h 0.5 L 14,28.5 Z m 1,0 h -0.5 L 14,28.5 14.25,28.07 h 0.5 L 15,28.5 Z m 2,0 h -0.5 L 16,28.5 16.25,28.07 h 0.5 L 17,28.5 Z m 3,0 h -0.5 L 19,28.5 19.25,28.07 h 0.5 L 20,28.5 Z m 2,0 h -0.5 L 21,28.5 21.25,28.07 h 0.5 L 22,28.5 Z m 3,0 h -0.5 L 24,28.5 24.25,28.07 h 0.5 L 25,28.5 Z m 1,0 h -0.5 L 25,28.5 25.25,28.07 h 0.5 L 26,28.5 Z m 1,0 h -0.5 L 26,28.5 26.25,28.07 h 0.5 L 27,28.5 Z m 1,0 h -0.5 L 27,28.5 27.25,28.07 h 0.5 L 28,28.5 Z m 1,0 h -0.5 L 28,28.5 28.25,28.07 h 0.5 L 29,28.5 Z m 3,0 h -0.5 L 31,28.5 31.25,28.07 h 0.5 L 32,28.5 Z m 1,0 h -0.5 L 32,28.5 32.25,28.07 h 0.5 L 33,28.5 Z m 2,0 h -0.5 L 34,28.5 34.25,28.07 h 0.5 L 35,28.5 Z m 1,0 h -0.5 L 35,28.5 35.25,28.07 h 0.5 L 36,28.5 Z m 2,0 h -0.5 L 37,28.5 37.25,28.07 h 0.5 L 38,28.5 Z m 1,0 h -0.5 L 38,28.5 38.25,28.07 h 0.5 L 39,28.5 Z m 1,0 h -0.5 L 39,28.5 39.25,28.07 h 0.5 L 40,28.5 Z m 4,0 h -0.5 L 43,28.5 43.25,28.07 h 0.5 L 44,28.5 Z m 1,0 h -0.5 L 44,28.5 44.25,28.07 h 0.5 L 45,28.5 Z m 1,0 h -0.5 L 45,28.5 45.25,28.07 h 0.5 L 46,28.5 Z m 1,0 h -0.5 L 46,28.5 46.25,28.07 h 0.5 L 47,28.5 Z m 1,0 h -0.5 L 47,28.5 47.25,28.07 h 0.5 L 48,28.5 Z m 1,0 h -0.5 L 48,28.5 48.25,28.07 h 0.5 L 49,28.5 Z m 3,0 h -0.5 L 51,28.5 51.25,28.07 h 0.5 L 52,28.5 Z m -51,1 H 0.25 L 0,29.5 0.25,29.07 h 0.5 L 1,29.5 Z m 2,0 H 2.25 L 2,29.5 2.25,29.07 h 0.5 L 3,29.5 Z m 1,0 H 3.25 L 3,29.5 3.25,29.07 h 0.5 L 4,29.5 Z m 9,0 h -0.5 L 12,29.5 12.25,29.07 h 0.5 L 13,29.5 Z m 1,0 h -0.5 L 13,29.5 13.25,29.07 h 0.5 L 14,29.5 Z m 1,0 h -0.5 L 14,29.5 14.25,29.07 h 0.5 L 15,29.5 Z m 1,0 h -0.5 L 15,29.5 15.25,29.07 h 0.5 L 16,29.5 Z m 1,0 h -0.5 L 16,29.5 16.25,29.07 h 0.5 L 17,29.5 Z m 2,0 h -0.5 L 18,29.5 18.25,29.07 h 0.5 L 19,29.5 Z m 5,0 h -0.5 L 23,29.5 23.25,29.07 h 0.5 L 24,29.5 Z m 2,0 h -0.5 L 25,29.5 25.25,29.07 h 0.5 L 26,29.5 Z m 1,0 h -0.5 L 26,29.5 26.25,29.07 h 0.5 L 27,29.5 Z m 1,0 h -0.5 L 27,29.5 27.25,29.07 h 0.5 L 28,29.5 Z m 1,0 h -0.5 L 28,29.5 28.25,29.07 h 0.5 L 29,29.5 Z m 1,0 h -0.5 L 29,29.5 29.25,29.07 h 0.5 L 30,29.5 Z m 4,0 h -0.5 L 33,29.5 33.25,29.07 h 0.5 L 34,29.5 Z m 1,0 h -0.5 L 34,29.5 34.25,29.07 h 0.5 L 35,29.5 Z m 5,0 h -0.5 L 39,29.5 39.25,29.07 h 0.5 L 40,29.5 Z m 1,0 h -0.5 L 40,29.5 40.25,29.07 h 0.5 L 41,29.5 Z m 1,0 h -0.5 L 41,29.5 41.25,29.07 h 0.5 L 42,29.5 Z m 4,0 h -0.5 L 45,29.5 45.25,29.07 h 0.5 L 46,29.5 Z m 2,0 h -0.5 L 47,29.5 47.25,29.07 h 0.5 L 48,29.5 Z m 4,0 h -0.5 L 51,29.5 51.25,29.07 h 0.5 L 52,29.5 Z m -51,1 H 0.25 L 0,30.5 0.25,30.07 h 0.5 L 1,30.5 Z m 1,0 H 1.25 L 1,30.5 1.25,30.07 h 0.5 L 2,30.5 Z m 4,0 H 5.25 L 5,30.5 5.25,30.07 h 0.5 L 6,30.5 Z m 1,0 H 6.25 L 6,30.5 6.25,30.07 h 0.5 L 7,30.5 Z m 3,0 H 9.25 L 9,30.5 9.25,30.07 h 0.5 L 10,30.5 Z m 2,0 h -0.5 L 11,30.5 11.25,30.07 h 0.5 L 12,30.5 Z m 2,0 h -0.5 L 13,30.5 13.25,30.07 h 0.5 L 14,30.5 Z m 1,0 h -0.5 L 14,30.5 14.25,30.07 h 0.5 L 15,30.5 Z m 3,0 h -0.5 L 17,30.5 17.25,30.07 h 0.5 L 18,30.5 Z m 1,0 h -0.5 L 18,30.5 18.25,30.07 h 0.5 L 19,30.5 Z m 1,0 h -0.5 L 19,30.5 19.25,30.07 h 0.5 L 20,30.5 Z m 5,0 h -0.5 L 24,30.5 24.25,30.07 h 0.5 L 25,30.5 Z m 2,0 h -0.5 L 26,30.5 26.25,30.07 h 0.5 L 27,30.5 Z m 1,0 h -0.5 L 27,30.5 27.25,30.07 h 0.5 L 28,30.5 Z m 1,0 h -0.5 L 28,30.5 28.25,30.07 h 0.5 L 29,30.5 Z m 1,0 h -0.5 L 29,30.5 29.25,30.07 h 0.5 L 30,30.5 Z m 2,0 h -0.5 L 31,30.5 31.25,30.07 h 0.5 L 32,30.5 Z m 2,0 h -0.5 L 33,30.5 33.25,30.07 h 0.5 L 34,30.5 Z m 1,0 h -0.5 L 34,30.5 34.25,30.07 h 0.5 L 35,30.5 Z m 1,0 h -0.5 L 35,30.5 35.25,30.07 h 0.5 L 36,30.5 Z m 1,0 h -0.5 L 36,30.5 36.25,30.07 h 0.5 L 37,30.5 Z m 2,0 h -0.5 L 38,30.5 38.25,30.07 h 0.5 L 39,30.5 Z m 1,0 h -0.5 L 39,30.5 39.25,30.07 h 0.5 L 40,30.5 Z m 3,0 h -0.5 L 42,30.5 42.25,30.07 h 0.5 L 43,30.5 Z m 8,0 h -0.5 L 50,30.5 50.25,30.07 h 0.5 L 51,30.5 Z m -47,1 H 3.25 L 3,31.5 3.25,31.07 h 0.5 L 4,31.5 Z m 2,0 H 5.25 L 5,31.5 5.25,31.07 h 0.5 L 6,31.5 Z m 2,0 H 7.25 L 7,31.5 7.25,31.07 h 0.5 L 8,31.5 Z m 1,0 H 8.25 L 8,31.5 8.25,31.07 h 0.5 L 9,31.5 Z m 1,0 H 9.25 L 9,31.5 9.25,31.07 h 0.5 L 10,31.5 Z m 2,0 h -0.5 L 11,31.5 11.25,31.07 h 0.5 L 12,31.5 Z m 6,0 h -0.5 L 17,31.5 17.25,31.07 h 0.5 L 18,31.5 Z m 1,0 h -0.5 L 18,31.5 18.25,31.07 h 0.5 L 19,31.5 Z m 1,0 h -0.5 L 19,31.5 19.25,31.07 h 0.5 L 20,31.5 Z m 1,0 h -0.5 L 20,31.5 20.25,31.07 h 0.5 L 21,31.5 Z m 2,0 h -0.5 L 22,31.5 22.25,31.07 h 0.5 L 23,31.5 Z m 2,0 h -0.5 L 24,31.5 24.25,31.07 h 0.5 L 25,31.5 Z m 7,0 h -0.5 L 31,31.5 31.25,31.07 h 0.5 L 32,31.5 Z m 1,0 h -0.5 L 32,31.5 32.25,31.07 h 0.5 L 33,31.5 Z m 2,0 h -0.5 L 34,31.5 34.25,31.07 h 0.5 L 35,31.5 Z m 1,0 h -0.5 L 35,31.5 35.25,31.07 h 0.5 L 36,31.5 Z m 1,0 h -0.5 L 36,31.5 36.25,31.07 h 0.5 L 37,31.5 Z m 3,0 h -0.5 L 39,31.5 39.25,31.07 h 0.5 L 40,31.5 Z m 1,0 h -0.5 L 40,31.5 40.25,31.07 h 0.5 L 41,31.5 Z m 1,0 h -0.5 L 41,31.5 41.25,31.07 h 0.5 L 42,31.5 Z m 2,0 h -0.5 L 43,31.5 43.25,31.07 h 0.5 L 44,31.5 Z m 4,0 h -0.5 L 47,31.5 47.25,31.07 h 0.5 L 48,31.5 Z m 1,0 h -0.5 L 48,31.5 48.25,31.07 h 0.5 L 49,31.5 Z m 1,0 h -0.5 L 49,31.5 49.25,31.07 h 0.5 L 50,31.5 Z m 1,0 h -0.5 L 50,31.5 50.25,31.07 h 0.5 L 51,31.5 Z m -48,1 H 2.25 L 2,32.5 2.25,32.07 h 0.5 L 3,32.5 Z m 2,0 H 4.25 L 4,32.5 4.25,32.07 h 0.5 L 5,32.5 Z m 2,0 H 6.25 L 6,32.5 6.25,32.07 h 0.5 L 7,32.5 Z m 1,0 H 7.25 L 7,32.5 7.25,32.07 h 0.5 L 8,32.5 Z m 1,0 H 8.25 L 8,32.5 8.25,32.07 h 0.5 L 9,32.5 Z m 1,0 H 9.25 L 9,32.5 9.25,32.07 h 0.5 L 10,32.5 Z m 2,0 h -0.5 L 11,32.5 11.25,32.07 h 0.5 L 12,32.5 Z m 3,0 h -0.5 L 14,32.5 14.25,32.07 h 0.5 L 15,32.5 Z m 2,0 h -0.5 L 16,32.5 16.25,32.07 h 0.5 L 17,32.5 Z m 1,0 h -0.5 L 17,32.5 17.25,32.07 h 0.5 L 18,32.5 Z m 3,0 h -0.5 L 20,32.5 20.25,32.07 h 0.5 L 21,32.5 Z m 2,0 h -0.5 L 22,32.5 22.25,32.07 h 0.5 L 23,32.5 Z m 5,0 h -0.5 L 27,32.5 27.25,32.07 h 0.5 L 28,32.5 Z m 1,0 h -0.5 L 28,32.5 28.25,32.07 h 0.5 L 29,32.5 Z m 5,0 h -0.5 L 33,32.5 33.25,32.07 h 0.5 L 34,32.5 Z m 1,0 h -0.5 L 34,32.5 34.25,32.07 h 0.5 L 35,32.5 Z m 1,0 h -0.5 L 35,32.5 35.25,32.07 h 0.5 L 36,32.5 Z m 2,0 h -0.5 L 37,32.5 37.25,32.07 h 0.5 L 38,32.5 Z m 1,0 h -0.5 L 38,32.5 38.25,32.07 h 0.5 L 39,32.5 Z m 2,0 h -0.5 L 40,32.5 40.25,32.07 h 0.5 L 41,32.5 Z m 3,0 h -0.5 L 43,32.5 43.25,32.07 h 0.5 L 44,32.5 Z m 2,0 h -0.5 L 45,32.5 45.25,32.07 h 0.5 L 46,32.5 Z m 3,0 h -0.5 L 48,32.5 48.25,32.07 h 0.5 L 49,32.5 Z m 1,0 h -0.5 L 49,32.5 49.25,32.07 h 0.5 L 50,32.5 Z m 3,0 h -0.5 L 52,32.5 52.25,32.07 h 0.5 L 53,32.5 Z m -52,1 H 0.25 L 0,33.5 0.25,33.07 h 0.5 L 1,33.5 Z m 2,0 H 2.25 L 2,33.5 2.25,33.07 h 0.5 L 3,33.5 Z m 2,0 H 4.25 L 4,33.5 4.25,33.07 h 0.5 L 5,33.5 Z m 5,0 H 9.25 L 9,33.5 9.25,33.07 h 0.5 L 10,33.5 Z m 3,0 h -0.5 L 12,33.5 12.25,33.07 h 0.5 L 13,33.5 Z m 4,0 h -0.5 L 16,33.5 16.25,33.07 h 0.5 L 17,33.5 Z m 2,0 h -0.5 L 18,33.5 18.25,33.07 h 0.5 L 19,33.5 Z m 4,0 h -0.5 L 22,33.5 22.25,33.07 h 0.5 L 23,33.5 Z m 3,0 h -0.5 L 25,33.5 25.25,33.07 h 0.5 L 26,33.5 Z m 4,0 h -0.5 L 29,33.5 29.25,33.07 h 0.5 L 30,33.5 Z m 1,0 h -0.5 L 30,33.5 30.25,33.07 h 0.5 L 31,33.5 Z m 1,0 h -0.5 L 31,33.5 31.25,33.07 h 0.5 L 32,33.5 Z m 1,0 h -0.5 L 32,33.5 32.25,33.07 h 0.5 L 33,33.5 Z m 3,0 h -0.5 L 35,33.5 35.25,33.07 h 0.5 L 36,33.5 Z m 1,0 h -0.5 L 36,33.5 36.25,33.07 h 0.5 L 37,33.5 Z m 1,0 h -0.5 L 37,33.5 37.25,33.07 h 0.5 L 38,33.5 Z m 2,0 h -0.5 L 39,33.5 39.25,33.07 h 0.5 L 40,33.5 Z m 2,0 h -0.5 L 41,33.5 41.25,33.07 h 0.5 L 42,33.5 Z m 1,0 h -0.5 L 42,33.5 42.25,33.07 h 0.5 L 43,33.5 Z m 1,0 h -0.5 L 43,33.5 43.25,33.07 h 0.5 L 44,33.5 Z m 1,0 h -0.5 L 44,33.5 44.25,33.07 h 0.5 L 45,33.5 Z m 2,0 h -0.5 L 46,33.5 46.25,33.07 h 0.5 L 47,33.5 Z m 1,0 h -0.5 L 47,33.5 47.25,33.07 h 0.5 L 48,33.5 Z m 1,0 h -0.5 L 48,33.5 48.25,33.07 h 0.5 L 49,33.5 Z m 1,0 h -0.5 L 49,33.5 49.25,33.07 h 0.5 L 50,33.5 Z m 1,0 h -0.5 L 50,33.5 50.25,33.07 h 0.5 L 51,33.5 Z m 1,0 h -0.5 L 51,33.5 51.25,33.07 h 0.5 L 52,33.5 Z m -49,1 H 2.25 L 2,34.5 2.25,34.07 h 0.5 L 3,34.5 Z m 1,0 H 3.25 L 3,34.5 3.25,34.07 h 0.5 L 4,34.5 Z m 3,0 H 6.25 L 6,34.5 6.25,34.07 h 0.5 L 7,34.5 Z m 1,0 H 7.25 L 7,34.5 7.25,34.07 h 0.5 L 8,34.5 Z m 4,0 h -0.5 L 11,34.5 11.25,34.07 h 0.5 L 12,34.5 Z m 1,0 h -0.5 L 12,34.5 12.25,34.07 h 0.5 L 13,34.5 Z m 4,0 h -0.5 L 16,34.5 16.25,34.07 h 0.5 L 17,34.5 Z m 2,0 h -0.5 L 18,34.5 18.25,34.07 h 0.5 L 19,34.5 Z m 1,0 h -0.5 L 19,34.5 19.25,34.07 h 0.5 L 20,34.5 Z m 2,0 h -0.5 L 21,34.5 21.25,34.07 h 0.5 L 22,34.5 Z m 2,0 h -0.5 L 23,34.5 23.25,34.07 h 0.5 L 24,34.5 Z m 2,0 h -0.5 L 25,34.5 25.25,34.07 h 0.5 L 26,34.5 Z m 4,0 h -0.5 L 29,34.5 29.25,34.07 h 0.5 L 30,34.5 Z m 1,0 h -0.5 L 30,34.5 30.25,34.07 h 0.5 L 31,34.5 Z m 1,0 h -0.5 L 31,34.5 31.25,34.07 h 0.5 L 32,34.5 Z m 2,0 h -0.5 L 33,34.5 33.25,34.07 h 0.5 L 34,34.5 Z m 1,0 h -0.5 L 34,34.5 34.25,34.07 h 0.5 L 35,34.5 Z m 1,0 h -0.5 L 35,34.5 35.25,34.07 h 0.5 L 36,34.5 Z m 3,0 h -0.5 L 38,34.5 38.25,34.07 h 0.5 L 39,34.5 Z m 1,0 h -0.5 L 39,34.5 39.25,34.07 h 0.5 L 40,34.5 Z m 1,0 h -0.5 L 40,34.5 40.25,34.07 h 0.5 L 41,34.5 Z m 1,0 h -0.5 L 41,34.5 41.25,34.07 h 0.5 L 42,34.5 Z m 1,0 h -0.5 L 42,34.5 42.25,34.07 h 0.5 L 43,34.5 Z m 1,0 h -0.5 L 43,34.5 43.25,34.07 h 0.5 L 44,34.5 Z m 2,0 h -0.5 L 45,34.5 45.25,34.07 h 0.5 L 46,34.5 Z m 2,0 h -0.5 L 47,34.5 47.25,34.07 h 0.5 L 48,34.5 Z m 2,0 h -0.5 L 49,34.5 49.25,34.07 h 0.5 L 50,34.5 Z m 1,0 h -0.5 L 50,34.5 50.25,34.07 h 0.5 L 51,34.5 Z m 1,0 h -0.5 L 51,34.5 51.25,34.07 h 0.5 L 52,34.5 Z m -50,1 H 1.25 L 1,35.5 1.25,35.07 h 0.5 L 2,35.5 Z m 1,0 H 2.25 L 2,35.5 2.25,35.07 h 0.5 L 3,35.5 Z m 2,0 H 4.25 L 4,35.5 4.25,35.07 h 0.5 L 5,35.5 Z m 1,0 H 5.25 L 5,35.5 5.25,35.07 h 0.5 L 6,35.5 Z m 3,0 H 8.25 L 8,35.5 8.25,35.07 h 0.5 L 9,35.5 Z m 1,0 H 9.25 L 9,35.5 9.25,35.07 h 0.5 L 10,35.5 Z m 1,0 h -0.5 L 10,35.5 10.25,35.07 h 0.5 L 11,35.5 Z m 1,0 h -0.5 L 11,35.5 11.25,35.07 h 0.5 L 12,35.5 Z m 2,0 h -0.5 L 13,35.5 13.25,35.07 h 0.5 L 14,35.5 Z m 2,0 h -0.5 L 15,35.5 15.25,35.07 h 0.5 L 16,35.5 Z m 3,0 h -0.5 L 18,35.5 18.25,35.07 h 0.5 L 19,35.5 Z m 4,0 h -0.5 L 22,35.5 22.25,35.07 h 0.5 L 23,35.5 Z m 2,0 h -0.5 L 24,35.5 24.25,35.07 h 0.5 L 25,35.5 Z m 1,0 h -0.5 L 25,35.5 25.25,35.07 h 0.5 L 26,35.5 Z m 2,0 h -0.5 L 27,35.5 27.25,35.07 h 0.5 L 28,35.5 Z m 1,0 h -0.5 L 28,35.5 28.25,35.07 h 0.5 L 29,35.5 Z m 1,0 h -0.5 L 29,35.5 29.25,35.07 h 0.5 L 30,35.5 Z m 2,0 h -0.5 L 31,35.5 31.25,35.07 h 0.5 L 32,35.5 Z m 3,0 h -0.5 L 34,35.5 34.25,35.07 h 0.5 L 35,35.5 Z m 2,0 h -0.5 L 36,35.5 36.25,35.07 h 0.5 L 37,35.5 Z m 1,0 h -0.5 L 37,35.5 37.25,35.07 h 0.5 L 38,35.5 Z m 10,0 h -0.5 L 47,35.5 47.25,35.07 h 0.5 L 48,35.5 Z m -41,1 H 6.25 L 6,36.5 6.25,36.07 h 0.5 L 7,36.5 Z m 3,0 H 9.25 L 9,36.5 9.25,36.07 h 0.5 L 10,36.5 Z m 1,0 h -0.5 L 10,36.5 10.25,36.07 h 0.5 L 11,36.5 Z m 3,0 h -0.5 L 13,36.5 13.25,36.07 h 0.5 L 14,36.5 Z m 2,0 h -0.5 L 15,36.5 15.25,36.07 h 0.5 L 16,36.5 Z m 1,0 h -0.5 L 16,36.5 16.25,36.07 h 0.5 L 17,36.5 Z m 1,0 h -0.5 L 17,36.5 17.25,36.07 h 0.5 L 18,36.5 Z m 1,0 h -0.5 L 18,36.5 18.25,36.07 h 0.5 L 19,36.5 Z m 2,0 h -0.5 L 20,36.5 20.25,36.07 h 0.5 L 21,36.5 Z m 3,0 h -0.5 L 23,36.5 23.25,36.07 h 0.5 L 24,36.5 Z m 1,0 h -0.5 L 24,36.5 24.25,36.07 h 0.5 L 25,36.5 Z m 1,0 h -0.5 L 25,36.5 25.25,36.07 h 0.5 L 26,36.5 Z m 2,0 h -0.5 L 27,36.5 27.25,36.07 h 0.5 L 28,36.5 Z m 4,0 h -0.5 L 31,36.5 31.25,36.07 h 0.5 L 32,36.5 Z m 3,0 h -0.5 L 34,36.5 34.25,36.07 h 0.5 L 35,36.5 Z m 1,0 h -0.5 L 35,36.5 35.25,36.07 h 0.5 L 36,36.5 Z m 1,0 h -0.5 L 36,36.5 36.25,36.07 h 0.5 L 37,36.5 Z m 2,0 h -0.5 L 38,36.5 38.25,36.07 h 0.5 L 39,36.5 Z m 3,0 h -0.5 L 41,36.5 41.25,36.07 h 0.5 L 42,36.5 Z m 1,0 h -0.5 L 42,36.5 42.25,36.07 h 0.5 L 43,36.5 Z m 3,0 h -0.5 L 45,36.5 45.25,36.07 h 0.5 L 46,36.5 Z m 1,0 h -0.5 L 46,36.5 46.25,36.07 h 0.5 L 47,36.5 Z m 2,0 h -0.5 L 48,36.5 48.25,36.07 h 0.5 L 49,36.5 Z m 2,0 h -0.5 L 50,36.5 50.25,36.07 h 0.5 L 51,36.5 Z m 1,0 h -0.5 L 51,36.5 51.25,36.07 h 0.5 L 52,36.5 Z m -51,1 H 0.25 L 0,37.5 0.25,37.07 h 0.5 L 1,37.5 Z m 2,0 H 2.25 L 2,37.5 2.25,37.07 h 0.5 L 3,37.5 Z m 3,0 H 5.25 L 5,37.5 5.25,37.07 h 0.5 L 6,37.5 Z m 2,0 H 7.25 L 7,37.5 7.25,37.07 h 0.5 L 8,37.5 Z m 1,0 H 8.25 L 8,37.5 8.25,37.07 h 0.5 L 9,37.5 Z m 2,0 h -0.5 L 10,37.5 10.25,37.07 h 0.5 L 11,37.5 Z m 1,0 h -0.5 L 11,37.5 11.25,37.07 h 0.5 L 12,37.5 Z m 2,0 h -0.5 L 13,37.5 13.25,37.07 h 0.5 L 14,37.5 Z m 2,0 h -0.5 L 15,37.5 15.25,37.07 h 0.5 L 16,37.5 Z m 3,0 h -0.5 L 18,37.5 18.25,37.07 h 0.5 L 19,37.5 Z m 1,0 h -0.5 L 19,37.5 19.25,37.07 h 0.5 L 20,37.5 Z m 1,0 h -0.5 L 20,37.5 20.25,37.07 h 0.5 L 21,37.5 Z m 2,0 h -0.5 L 22,37.5 22.25,37.07 h 0.5 L 23,37.5 Z m 2,0 h -0.5 L 24,37.5 24.25,37.07 h 0.5 L 25,37.5 Z m 1,0 h -0.5 L 25,37.5 25.25,37.07 h 0.5 L 26,37.5 Z m 7,0 h -0.5 L 32,37.5 32.25,37.07 h 0.5 L 33,37.5 Z m 1,0 h -0.5 L 33,37.5 33.25,37.07 h 0.5 L 34,37.5 Z m 4,0 h -0.5 L 37,37.5 37.25,37.07 h 0.5 L 38,37.5 Z m 1,0 h -0.5 L 38,37.5 38.25,37.07 h 0.5 L 39,37.5 Z m 2,0 h -0.5 L 40,37.5 40.25,37.07 h 0.5 L 41,37.5 Z m 3,0 h -0.5 L 43,37.5 43.25,37.07 h 0.5 L 44,37.5 Z m 1,0 h -0.5 L 44,37.5 44.25,37.07 h 0.5 L 45,37.5 Z m 1,0 h -0.5 L 45,37.5 45.25,37.07 h 0.5 L 46,37.5 Z m 2,0 h -0.5 L 47,37.5 47.25,37.07 h 0.5 L 48,37.5 Z m 3,0 h -0.5 L 50,37.5 50.25,37.07 h 0.5 L 51,37.5 Z m 1,0 h -0.5 L 51,37.5 51.25,37.07 h 0.5 L 52,37.5 Z m 1,0 h -0.5 L 52,37.5 52.25,37.07 h 0.5 L 53,37.5 Z m -48,1 H 4.25 L 4,38.5 4.25,38.07 h 0.5 L 5,38.5 Z m 2,0 H 6.25 L 6,38.5 6.25,38.07 h 0.5 L 7,38.5 Z m 2,0 H 8.25 L 8,38.5 8.25,38.07 h 0.5 L 9,38.5 Z m 1,0 H 9.25 L 9,38.5 9.25,38.07 h 0.5 L 10,38.5 Z m 3,0 h -0.5 L 12,38.5 12.25,38.07 h 0.5 L 13,38.5 Z m 1,0 h -0.5 L 13,38.5 13.25,38.07 h 0.5 L 14,38.5 Z m 3,0 h -0.5 L 16,38.5 16.25,38.07 h 0.5 L 17,38.5 Z m 3,0 h -0.5 L 19,38.5 19.25,38.07 h 0.5 L 20,38.5 Z m 2,0 h -0.5 L 21,38.5 21.25,38.07 h 0.5 L 22,38.5 Z m 1,0 h -0.5 L 22,38.5 22.25,38.07 h 0.5 L 23,38.5 Z m 2,0 h -0.5 L 24,38.5 24.25,38.07 h 0.5 L 25,38.5 Z m 6,0 h -0.5 L 30,38.5 30.25,38.07 h 0.5 L 31,38.5 Z m 5,0 h -0.5 L 35,38.5 35.25,38.07 h 0.5 L 36,38.5 Z m 2,0 h -0.5 L 37,38.5 37.25,38.07 h 0.5 L 38,38.5 Z m 1,0 h -0.5 L 38,38.5 38.25,38.07 h 0.5 L 39,38.5 Z m 2,0 h -0.5 L 40,38.5 40.25,38.07 h 0.5 L 41,38.5 Z m 5,0 h -0.5 L 45,38.5 45.25,38.07 h 0.5 L 46,38.5 Z m 1,0 h -0.5 L 46,38.5 46.25,38.07 h 0.5 L 47,38.5 Z m 4,0 h -0.5 L 50,38.5 50.25,38.07 h 0.5 L 51,38.5 Z m 1,0 h -0.5 L 51,38.5 51.25,38.07 h 0.5 L 52,38.5 Z m 1,0 h -0.5 L 52,38.5 52.25,38.07 h 0.5 L 53,38.5 Z m -52,1 H 0.25 L 0,39.5 0.25,39.07 h 0.5 L 1,39.5 Z m 1,0 H 1.25 L 1,39.5 1.25,39.07 h 0.5 L 2,39.5 Z m 3,0 H 4.25 L 4,39.5 4.25,39.07 h 0.5 L 5,39.5 Z m 1,0 H 5.25 L 5,39.5 5.25,39.07 h 0.5 L 6,39.5 Z m 5,0 h -0.5 L 10,39.5 10.25,39.07 h 0.5 L 11,39.5 Z m 2,0 h -0.5 L 12,39.5 12.25,39.07 h 0.5 L 13,39.5 Z m 1,0 h -0.5 L 13,39.5 13.25,39.07 h 0.5 L 14,39.5 Z m 4,0 h -0.5 L 17,39.5 17.25,39.07 h 0.5 L 18,39.5 Z m 2,0 h -0.5 L 19,39.5 19.25,39.07 h 0.5 L 20,39.5 Z m 2,0 h -0.5 L 21,39.5 21.25,39.07 h 0.5 L 22,39.5 Z m 8,0 h -0.5 L 29,39.5 29.25,39.07 h 0.5 L 30,39.5 Z m 1,0 h -0.5 L 30,39.5 30.25,39.07 h 0.5 L 31,39.5 Z m 3,0 h -0.5 L 33,39.5 33.25,39.07 h 0.5 L 34,39.5 Z m 4,0 h -0.5 L 37,39.5 37.25,39.07 h 0.5 L 38,39.5 Z m 2,0 h -0.5 L 39,39.5 39.25,39.07 h 0.5 L 40,39.5 Z m 1,0 h -0.5 L 40,39.5 40.25,39.07 h 0.5 L 41,39.5 Z m 1,0 h -0.5 L 41,39.5 41.25,39.07 h 0.5 L 42,39.5 Z m 2,0 h -0.5 L 43,39.5 43.25,39.07 h 0.5 L 44,39.5 Z m 2,0 h -0.5 L 45,39.5 45.25,39.07 h 0.5 L 46,39.5 Z m 2,0 h -0.5 L 47,39.5 47.25,39.07 h 0.5 L 48,39.5 Z m 1,0 h -0.5 L 48,39.5 48.25,39.07 h 0.5 L 49,39.5 Z m 1,0 h -0.5 L 49,39.5 49.25,39.07 h 0.5 L 50,39.5 Z m 2,0 h -0.5 L 51,39.5 51.25,39.07 h 0.5 L 52,39.5 Z m -50,1 H 1.25 L 1,40.5 1.25,40.07 h 0.5 L 2,40.5 Z m 2,0 H 3.25 L 3,40.5 3.25,40.07 h 0.5 L 4,40.5 Z m 3,0 H 6.25 L 6,40.5 6.25,40.07 h 0.5 L 7,40.5 Z m 1,0 H 7.25 L 7,40.5 7.25,40.07 h 0.5 L 8,40.5 Z m 2,0 H 9.25 L 9,40.5 9.25,40.07 h 0.5 L 10,40.5 Z m 1,0 h -0.5 L 10,40.5 10.25,40.07 h 0.5 L 11,40.5 Z m 2,0 h -0.5 L 12,40.5 12.25,40.07 h 0.5 L 13,40.5 Z m 2,0 h -0.5 L 14,40.5 14.25,40.07 h 0.5 L 15,40.5 Z m 5,0 h -0.5 L 19,40.5 19.25,40.07 h 0.5 L 20,40.5 Z m 4,0 h -0.5 L 23,40.5 23.25,40.07 h 0.5 L 24,40.5 Z m 2,0 h -0.5 L 25,40.5 25.25,40.07 h 0.5 L 26,40.5 Z m 1,0 h -0.5 L 26,40.5 26.25,40.07 h 0.5 L 27,40.5 Z m 1,0 h -0.5 L 27,40.5 27.25,40.07 h 0.5 L 28,40.5 Z m 1,0 h -0.5 L 28,40.5 28.25,40.07 h 0.5 L 29,40.5 Z m 1,0 h -0.5 L 29,40.5 29.25,40.07 h 0.5 L 30,40.5 Z m 2,0 h -0.5 L 31,40.5 31.25,40.07 h 0.5 L 32,40.5 Z m 1,0 h -0.5 L 32,40.5 32.25,40.07 h 0.5 L 33,40.5 Z m 1,0 h -0.5 L 33,40.5 33.25,40.07 h 0.5 L 34,40.5 Z m 1,0 h -0.5 L 34,40.5 34.25,40.07 h 0.5 L 35,40.5 Z m 5,0 h -0.5 L 39,40.5 39.25,40.07 h 0.5 L 40,40.5 Z m 3,0 h -0.5 L 42,40.5 42.25,40.07 h 0.5 L 43,40.5 Z m 5,0 h -0.5 L 47,40.5 47.25,40.07 h 0.5 L 48,40.5 Z m 1,0 h -0.5 L 48,40.5 48.25,40.07 h 0.5 L 49,40.5 Z m 2,0 h -0.5 L 50,40.5 50.25,40.07 h 0.5 L 51,40.5 Z m 1,0 h -0.5 L 51,40.5 51.25,40.07 h 0.5 L 52,40.5 Z m -51,1 H 0.25 L 0,41.5 0.25,41.07 h 0.5 L 1,41.5 Z m 3,0 H 3.25 L 3,41.5 3.25,41.07 h 0.5 L 4,41.5 Z m 4,0 H 7.25 L 7,41.5 7.25,41.07 h 0.5 L 8,41.5 Z m 1,0 H 8.25 L 8,41.5 8.25,41.07 h 0.5 L 9,41.5 Z m 1,0 H 9.25 L 9,41.5 9.25,41.07 h 0.5 L 10,41.5 Z m 1,0 h -0.5 L 10,41.5 10.25,41.07 h 0.5 L 11,41.5 Z m 6,0 h -0.5 L 16,41.5 16.25,41.07 h 0.5 L 17,41.5 Z m 3,0 h -0.5 L 19,41.5 19.25,41.07 h 0.5 L 20,41.5 Z m 2,0 h -0.5 L 21,41.5 21.25,41.07 h 0.5 L 22,41.5 Z m 3,0 h -0.5 L 24,41.5 24.25,41.07 h 0.5 L 25,41.5 Z m 1,0 h -0.5 L 25,41.5 25.25,41.07 h 0.5 L 26,41.5 Z m 3,0 h -0.5 L 28,41.5 28.25,41.07 h 0.5 L 29,41.5 Z m 1,0 h -0.5 L 29,41.5 29.25,41.07 h 0.5 L 30,41.5 Z m 2,0 h -0.5 L 31,41.5 31.25,41.07 h 0.5 L 32,41.5 Z m 1,0 h -0.5 L 32,41.5 32.25,41.07 h 0.5 L 33,41.5 Z m 1,0 h -0.5 L 33,41.5 33.25,41.07 h 0.5 L 34,41.5 Z m 1,0 h -0.5 L 34,41.5 34.25,41.07 h 0.5 L 35,41.5 Z m 2,0 h -0.5 L 36,41.5 36.25,41.07 h 0.5 L 37,41.5 Z m 3,0 h -0.5 L 39,41.5 39.25,41.07 h 0.5 L 40,41.5 Z m 1,0 h -0.5 L 40,41.5 40.25,41.07 h 0.5 L 41,41.5 Z m 1,0 h -0.5 L 41,41.5 41.25,41.07 h 0.5 L 42,41.5 Z m 4,0 h -0.5 L 45,41.5 45.25,41.07 h 0.5 L 46,41.5 Z m 2,0 h -0.5 L 47,41.5 47.25,41.07 h 0.5 L 48,41.5 Z m 2,0 h -0.5 L 49,41.5 49.25,41.07 h 0.5 L 50,41.5 Z m 3,0 h -0.5 L 52,41.5 52.25,41.07 h 0.5 L 53,41.5 Z m -52,1 H 0.25 L 0,42.5 0.25,42.07 h 0.5 L 1,42.5 Z m 1,0 H 1.25 L 1,42.5 1.25,42.07 h 0.5 L 2,42.5 Z m 2,0 H 3.25 L 3,42.5 3.25,42.07 h 0.5 L 4,42.5 Z m 1,0 H 4.25 L 4,42.5 4.25,42.07 h 0.5 L 5,42.5 Z m 1,0 H 5.25 L 5,42.5 5.25,42.07 h 0.5 L 6,42.5 Z m 1,0 H 6.25 L 6,42.5 6.25,42.07 h 0.5 L 7,42.5 Z m 3,0 H 9.25 L 9,42.5 9.25,42.07 h 0.5 L 10,42.5 Z m 1,0 h -0.5 L 10,42.5 10.25,42.07 h 0.5 L 11,42.5 Z m 1,0 h -0.5 L 11,42.5 11.25,42.07 h 0.5 L 12,42.5 Z m 2,0 h -0.5 L 13,42.5 13.25,42.07 h 0.5 L 14,42.5 Z m 1,0 h -0.5 L 14,42.5 14.25,42.07 h 0.5 L 15,42.5 Z m 1,0 h -0.5 L 15,42.5 15.25,42.07 h 0.5 L 16,42.5 Z m 3,0 h -0.5 L 18,42.5 18.25,42.07 h 0.5 L 19,42.5 Z m 1,0 h -0.5 L 19,42.5 19.25,42.07 h 0.5 L 20,42.5 Z m 5,0 h -0.5 L 24,42.5 24.25,42.07 h 0.5 L 25,42.5 Z m 3,0 h -0.5 L 27,42.5 27.25,42.07 h 0.5 L 28,42.5 Z m 1,0 h -0.5 L 28,42.5 28.25,42.07 h 0.5 L 29,42.5 Z m 4,0 h -0.5 L 32,42.5 32.25,42.07 h 0.5 L 33,42.5 Z m 1,0 h -0.5 L 33,42.5 33.25,42.07 h 0.5 L 34,42.5 Z m 1,0 h -0.5 L 34,42.5 34.25,42.07 h 0.5 L 35,42.5 Z m 2,0 h -0.5 L 36,42.5 36.25,42.07 h 0.5 L 37,42.5 Z m 8,0 h -0.5 L 44,42.5 44.25,42.07 h 0.5 L 45,42.5 Z m 4,0 h -0.5 L 48,42.5 48.25,42.07 h 0.5 L 49,42.5 Z m 2,0 h -0.5 L 50,42.5 50.25,42.07 h 0.5 L 51,42.5 Z m -49,1 H 1.25 L 1,43.5 1.25,43.07 h 0.5 L 2,43.5 Z m 1,0 H 2.25 L 2,43.5 2.25,43.07 h 0.5 L 3,43.5 Z m 6,0 H 8.25 L 8,43.5 8.25,43.07 h 0.5 L 9,43.5 Z m 1,0 H 9.25 L 9,43.5 9.25,43.07 h 0.5 L 10,43.5 Z m 2,0 h -0.5 L 11,43.5 11.25,43.07 h 0.5 L 12,43.5 Z m 2,0 h -0.5 L 13,43.5 13.25,43.07 h 0.5 L 14,43.5 Z m 2,0 h -0.5 L 15,43.5 15.25,43.07 h 0.5 L 16,43.5 Z m 3,0 h -0.5 L 18,43.5 18.25,43.07 h 0.5 L 19,43.5 Z m 2,0 h -0.5 L 20,43.5 20.25,43.07 h 0.5 L 21,43.5 Z m 1,0 h -0.5 L 21,43.5 21.25,43.07 h 0.5 L 22,43.5 Z m 2,0 h -0.5 L 23,43.5 23.25,43.07 h 0.5 L 24,43.5 Z m 1,0 h -0.5 L 24,43.5 24.25,43.07 h 0.5 L 25,43.5 Z m 2,0 h -0.5 L 26,43.5 26.25,43.07 h 0.5 L 27,43.5 Z m 4,0 h -0.5 L 30,43.5 30.25,43.07 h 0.5 L 31,43.5 Z m 1,0 h -0.5 L 31,43.5 31.25,43.07 h 0.5 L 32,43.5 Z m 1,0 h -0.5 L 32,43.5 32.25,43.07 h 0.5 L 33,43.5 Z m 1,0 h -0.5 L 33,43.5 33.25,43.07 h 0.5 L 34,43.5 Z m 1,0 h -0.5 L 34,43.5 34.25,43.07 h 0.5 L 35,43.5 Z m 1,0 h -0.5 L 35,43.5 35.25,43.07 h 0.5 L 36,43.5 Z m 1,0 h -0.5 L 36,43.5 36.25,43.07 h 0.5 L 37,43.5 Z m 1,0 h -0.5 L 37,43.5 37.25,43.07 h 0.5 L 38,43.5 Z m 1,0 h -0.5 L 38,43.5 38.25,43.07 h 0.5 L 39,43.5 Z m 1,0 h -0.5 L 39,43.5 39.25,43.07 h 0.5 L 40,43.5 Z m 1,0 h -0.5 L 40,43.5 40.25,43.07 h 0.5 L 41,43.5 Z m 1,0 h -0.5 L 41,43.5 41.25,43.07 h 0.5 L 42,43.5 Z m 1,0 h -0.5 L 42,43.5 42.25,43.07 h 0.5 L 43,43.5 Z m 1,0 h -0.5 L 43,43.5 43.25,43.07 h 0.5 L 44,43.5 Z m 1,0 h -0.5 L 44,43.5 44.25,43.07 h 0.5 L 45,43.5 Z m 1,0 h -0.5 L 45,43.5 45.25,43.07 h 0.5 L 46,43.5 Z m 1,0 h -0.5 L 46,43.5 46.25,43.07 h 0.5 L 47,43.5 Z m 3,0 h -0.5 L 49,43.5 49.25,43.07 h 0.5 L 50,43.5 Z m 1,0 h -0.5 L 50,43.5 50.25,43.07 h 0.5 L 51,43.5 Z m -47,1 H 3.25 L 3,44.5 3.25,44.07 h 0.5 L 4,44.5 Z m 3,0 H 6.25 L 6,44.5 6.25,44.07 h 0.5 L 7,44.5 Z m 3,0 H 9.25 L 9,44.5 9.25,44.07 h 0.5 L 10,44.5 Z m 1,0 h -0.5 L 10,44.5 10.25,44.07 h 0.5 L 11,44.5 Z m 1,0 h -0.5 L 11,44.5 11.25,44.07 h 0.5 L 12,44.5 Z m 2,0 h -0.5 L 13,44.5 13.25,44.07 h 0.5 L 14,44.5 Z m 2,0 h -0.5 L 15,44.5 15.25,44.07 h 0.5 L 16,44.5 Z m 2,0 h -0.5 L 17,44.5 17.25,44.07 h 0.5 L 18,44.5 Z m 2,0 h -0.5 L 19,44.5 19.25,44.07 h 0.5 L 20,44.5 Z m 2,0 h -0.5 L 21,44.5 21.25,44.07 h 0.5 L 22,44.5 Z m 1,0 h -0.5 L 22,44.5 22.25,44.07 h 0.5 L 23,44.5 Z m 2,0 h -0.5 L 24,44.5 24.25,44.07 h 0.5 L 25,44.5 Z m 1,0 h -0.5 L 25,44.5 25.25,44.07 h 0.5 L 26,44.5 Z m 1,0 h -0.5 L 26,44.5 26.25,44.07 h 0.5 L 27,44.5 Z m 1,0 h -0.5 L 27,44.5 27.25,44.07 h 0.5 L 28,44.5 Z m 1,0 h -0.5 L 28,44.5 28.25,44.07 h 0.5 L 29,44.5 Z m 1,0 h -0.5 L 29,44.5 29.25,44.07 h 0.5 L 30,44.5 Z m 1,0 h -0.5 L 30,44.5 30.25,44.07 h 0.5 L 31,44.5 Z m 3,0 h -0.5 L 33,44.5 33.25,44.07 h 0.5 L 34,44.5 Z m 2,0 h -0.5 L 35,44.5 35.25,44.07 h 0.5 L 36,44.5 Z m 4,0 h -0.5 L 39,44.5 39.25,44.07 h 0.5 L 40,44.5 Z m 1,0 h -0.5 L 40,44.5 40.25,44.07 h 0.5 L 41,44.5 Z m 1,0 h -0.5 L 41,44.5 41.25,44.07 h 0.5 L 42,44.5 Z m 2,0 h -0.5 L 43,44.5 43.25,44.07 h 0.5 L 44,44.5 Z m 1,0 h -0.5 L 44,44.5 44.25,44.07 h 0.5 L 45,44.5 Z m 1,0 h -0.5 L 45,44.5 45.25,44.07 h 0.5 L 46,44.5 Z m 1,0 h -0.5 L 46,44.5 46.25,44.07 h 0.5 L 47,44.5 Z m 1,0 h -0.5 L 47,44.5 47.25,44.07 h 0.5 L 48,44.5 Z m 1,0 h -0.5 L 48,44.5 48.25,44.07 h 0.5 L 49,44.5 Z m 1,0 h -0.5 L 49,44.5 49.25,44.07 h 0.5 L 50,44.5 Z m 1,0 h -0.5 L 50,44.5 50.25,44.07 h 0.5 L 51,44.5 Z m 1,0 h -0.5 L 51,44.5 51.25,44.07 h 0.5 L 52,44.5 Z m -43,1 H 8.25 L 8,45.5 8.25,45.07 h 0.5 L 9,45.5 Z m 1,0 H 9.25 L 9,45.5 9.25,45.07 h 0.5 L 10,45.5 Z m 4,0 h -0.5 L 13,45.5 13.25,45.07 h 0.5 L 14,45.5 Z m 4,0 h -0.5 L 17,45.5 17.25,45.07 h 0.5 L 18,45.5 Z m 2,0 h -0.5 L 19,45.5 19.25,45.07 h 0.5 L 20,45.5 Z m 2,0 h -0.5 L 21,45.5 21.25,45.07 h 0.5 L 22,45.5 Z m 1,0 h -0.5 L 22,45.5 22.25,45.07 h 0.5 L 23,45.5 Z m 2,0 h -0.5 L 24,45.5 24.25,45.07 h 0.5 L 25,45.5 Z m 4,0 h -0.5 L 28,45.5 28.25,45.07 h 0.5 L 29,45.5 Z m 1,0 h -0.5 L 29,45.5 29.25,45.07 h 0.5 L 30,45.5 Z m 1,0 h -0.5 L 30,45.5 30.25,45.07 h 0.5 L 31,45.5 Z m 2,0 h -0.5 L 32,45.5 32.25,45.07 h 0.5 L 33,45.5 Z m 4,0 h -0.5 L 36,45.5 36.25,45.07 h 0.5 L 37,45.5 Z m 1,0 h -0.5 L 37,45.5 37.25,45.07 h 0.5 L 38,45.5 Z m 2,0 h -0.5 L 39,45.5 39.25,45.07 h 0.5 L 40,45.5 Z m 1,0 h -0.5 L 40,45.5 40.25,45.07 h 0.5 L 41,45.5 Z m 1,0 h -0.5 L 41,45.5 41.25,45.07 h 0.5 L 42,45.5 Z m 1,0 h -0.5 L 42,45.5 42.25,45.07 h 0.5 L 43,45.5 Z m 2,0 h -0.5 L 44,45.5 44.25,45.07 h 0.5 L 45,45.5 Z m 4,0 h -0.5 L 48,45.5 48.25,45.07 h 0.5 L 49,45.5 Z m 4,0 h -0.5 L 52,45.5 52.25,45.07 h 0.5 L 53,45.5 Z M 0,46 h 1 v 1 H 0 Z m 1,0 h 1 v 1 H 1 Z m 1,0 h 1 v 1 H 2 Z m 1,0 h 1 v 1 H 3 Z m 1,0 h 1 v 1 H 4 Z m 1,0 h 1 v 1 H 5 Z m 1,0 h 1 v 1 H 6 Z m 3.75,0.93 H 9.25 L 9,46.5 9.25,46.07 h 0.5 L 10,46.5 Z m 2,0 h -0.5 L 11,46.5 11.25,46.07 h 0.5 L 12,46.5 Z m 1,0 h -0.5 L 12,46.5 12.25,46.07 h 0.5 L 13,46.5 Z m 5,0 h -0.5 L 17,46.5 17.25,46.07 h 0.5 L 18,46.5 Z m 3,0 h -0.5 L 20,46.5 20.25,46.07 h 0.5 L 21,46.5 Z m 4,0 h -0.5 L 24,46.5 24.25,46.07 h 0.5 L 25,46.5 Z m 2,0 h -0.5 L 26,46.5 26.25,46.07 h 0.5 L 27,46.5 Z m 2,0 h -0.5 L 28,46.5 28.25,46.07 h 0.5 L 29,46.5 Z m 1,0 h -0.5 L 29,46.5 29.25,46.07 h 0.5 L 30,46.5 Z m 1,0 h -0.5 L 30,46.5 30.25,46.07 h 0.5 L 31,46.5 Z m 4,0 h -0.5 L 34,46.5 34.25,46.07 h 0.5 L 35,46.5 Z m 6,0 h -0.5 L 40,46.5 40.25,46.07 h 0.5 L 41,46.5 Z m 1,0 h -0.5 L 41,46.5 41.25,46.07 h 0.5 L 42,46.5 Z m 2,0 h -0.5 L 43,46.5 43.25,46.07 h 0.5 L 44,46.5 Z m 1,0 h -0.5 L 44,46.5 44.25,46.07 h 0.5 L 45,46.5 Z m 2,0 h -0.5 L 46,46.5 46.25,46.07 h 0.5 L 47,46.5 Z m 2,0 h -0.5 L 48,46.5 48.25,46.07 h 0.5 L 49,46.5 Z m 1,0 h -0.5 L 49,46.5 49.25,46.07 h 0.5 L 50,46.5 Z m 1,0 h -0.5 L 50,46.5 50.25,46.07 h 0.5 L 51,46.5 Z m 1,0 h -0.5 L 51,46.5 51.25,46.07 h 0.5 L 52,46.5 Z M 0,47 h 1 v 1 H 0 Z m 6,0 h 1 v 1 H 6 Z m 4.75,0.93 h -0.5 L 10,47.5 10.25,47.07 h 0.5 L 11,47.5 Z m 2,0 h -0.5 L 12,47.5 12.25,47.07 h 0.5 L 13,47.5 Z m 3,0 h -0.5 L 15,47.5 15.25,47.07 h 0.5 L 16,47.5 Z m 2,0 h -0.5 L 17,47.5 17.25,47.07 h 0.5 L 18,47.5 Z m 2,0 h -0.5 L 19,47.5 19.25,47.07 h 0.5 L 20,47.5 Z m 2,0 h -0.5 L 21,47.5 21.25,47.07 h 0.5 L 22,47.5 Z m 2,0 h -0.5 L 23,47.5 23.25,47.07 h 0.5 L 24,47.5 Z m 1,0 h -0.5 L 24,47.5 24.25,47.07 h 0.5 L 25,47.5 Z m 4,0 h -0.5 L 28,47.5 28.25,47.07 h 0.5 L 29,47.5 Z m 1,0 h -0.5 L 29,47.5 29.25,47.07 h 0.5 L 30,47.5 Z m 2,0 h -0.5 L 31,47.5 31.25,47.07 h 0.5 L 32,47.5 Z m 2,0 h -0.5 L 33,47.5 33.25,47.07 h 0.5 L 34,47.5 Z m 1,0 h -0.5 L 34,47.5 34.25,47.07 h 0.5 L 35,47.5 Z m 1,0 h -0.5 L 35,47.5 35.25,47.07 h 0.5 L 36,47.5 Z m 3,0 h -0.5 L 38,47.5 38.25,47.07 h 0.5 L 39,47.5 Z m 4,0 h -0.5 L 42,47.5 42.25,47.07 h 0.5 L 43,47.5 Z m 2,0 h -0.5 L 44,47.5 44.25,47.07 h 0.5 L 45,47.5 Z m 4,0 h -0.5 L 48,47.5 48.25,47.07 h 0.5 L 49,47.5 Z m 4,0 h -0.5 L 52,47.5 52.25,47.07 h 0.5 L 53,47.5 Z M 0,48 h 1 v 1 H 0 Z m 2,0 h 1 v 1 H 2 Z m 1,0 h 1 v 1 H 3 Z m 1,0 h 1 v 1 H 4 Z m 2,0 h 1 v 1 H 6 Z m 3.75,0.93 H 9.25 L 9,48.5 9.25,48.07 h 0.5 L 10,48.5 Z m 3,0 h -0.5 L 12,48.5 12.25,48.07 h 0.5 L 13,48.5 Z m 3,0 h -0.5 L 15,48.5 15.25,48.07 h 0.5 L 16,48.5 Z m 2,0 h -0.5 L 17,48.5 17.25,48.07 h 0.5 L 18,48.5 Z m 1,0 h -0.5 L 18,48.5 18.25,48.07 h 0.5 L 19,48.5 Z m 1,0 h -0.5 L 19,48.5 19.25,48.07 h 0.5 L 20,48.5 Z m 1,0 h -0.5 L 20,48.5 20.25,48.07 h 0.5 L 21,48.5 Z m 1,0 h -0.5 L 21,48.5 21.25,48.07 h 0.5 L 22,48.5 Z m 3,0 h -0.5 L 24,48.5 24.25,48.07 h 0.5 L 25,48.5 Z m 1,0 h -0.5 L 25,48.5 25.25,48.07 h 0.5 L 26,48.5 Z m 1,0 h -0.5 L 26,48.5 26.25,48.07 h 0.5 L 27,48.5 Z m 1,0 h -0.5 L 27,48.5 27.25,48.07 h 0.5 L 28,48.5 Z m 1,0 h -0.5 L 28,48.5 28.25,48.07 h 0.5 L 29,48.5 Z m 1,0 h -0.5 L 29,48.5 29.25,48.07 h 0.5 L 30,48.5 Z m 1,0 h -0.5 L 30,48.5 30.25,48.07 h 0.5 L 31,48.5 Z m 5,0 h -0.5 L 35,48.5 35.25,48.07 h 0.5 L 36,48.5 Z m 1,0 h -0.5 L 36,48.5 36.25,48.07 h 0.5 L 37,48.5 Z m 2,0 h -0.5 L 38,48.5 38.25,48.07 h 0.5 L 39,48.5 Z m 3,0 h -0.5 L 41,48.5 41.25,48.07 h 0.5 L 42,48.5 Z m 1,0 h -0.5 L 42,48.5 42.25,48.07 h 0.5 L 43,48.5 Z m 1,0 h -0.5 L 43,48.5 43.25,48.07 h 0.5 L 44,48.5 Z m 1,0 h -0.5 L 44,48.5 44.25,48.07 h 0.5 L 45,48.5 Z m 1,0 h -0.5 L 45,48.5 45.25,48.07 h 0.5 L 46,48.5 Z m 1,0 h -0.5 L 46,48.5 46.25,48.07 h 0.5 L 47,48.5 Z m 1,0 h -0.5 L 47,48.5 47.25,48.07 h 0.5 L 48,48.5 Z m 1,0 h -0.5 L 48,48.5 48.25,48.07 h 0.5 L 49,48.5 Z m 1,0 h -0.5 L 49,48.5 49.25,48.07 h 0.5 L 50,48.5 Z M 0,49 h 1 v 1 H 0 Z m 2,0 h 1 v 1 H 2 Z m 1,0 h 1 v 1 H 3 Z m 1,0 h 1 v 1 H 4 Z m 2,0 h 1 v 1 H 6 Z m 2.75,0.93 H 8.25 L 8,49.5 8.25,49.07 h 0.5 L 9,49.5 Z m 1,0 H 9.25 L 9,49.5 9.25,49.07 h 0.5 L 10,49.5 Z m 1,0 h -0.5 L 10,49.5 10.25,49.07 h 0.5 L 11,49.5 Z m 1,0 h -0.5 L 11,49.5 11.25,49.07 h 0.5 L 12,49.5 Z m 2,0 h -0.5 L 13,49.5 13.25,49.07 h 0.5 L 14,49.5 Z m 1,0 h -0.5 L 14,49.5 14.25,49.07 h 0.5 L 15,49.5 Z m 1,0 h -0.5 L 15,49.5 15.25,49.07 h 0.5 L 16,49.5 Z m 5,0 h -0.5 L 20,49.5 20.25,49.07 h 0.5 L 21,49.5 Z m 1,0 h -0.5 L 21,49.5 21.25,49.07 h 0.5 L 22,49.5 Z m 1,0 h -0.5 L 22,49.5 22.25,49.07 h 0.5 L 23,49.5 Z m 1,0 h -0.5 L 23,49.5 23.25,49.07 h 0.5 L 24,49.5 Z m 1,0 h -0.5 L 24,49.5 24.25,49.07 h 0.5 L 25,49.5 Z m 1,0 h -0.5 L 25,49.5 25.25,49.07 h 0.5 L 26,49.5 Z m 1,0 h -0.5 L 26,49.5 26.25,49.07 h 0.5 L 27,49.5 Z m 6,0 h -0.5 L 32,49.5 32.25,49.07 h 0.5 L 33,49.5 Z m 1,0 h -0.5 L 33,49.5 33.25,49.07 h 0.5 L 34,49.5 Z m 2,0 h -0.5 L 35,49.5 35.25,49.07 h 0.5 L 36,49.5 Z m 1,0 h -0.5 L 36,49.5 36.25,49.07 h 0.5 L 37,49.5 Z m 2,0 h -0.5 L 38,49.5 38.25,49.07 h 0.5 L 39,49.5 Z m 1,0 h -0.5 L 39,49.5 39.25,49.07 h 0.5 L 40,49.5 Z m 1,0 h -0.5 L 40,49.5 40.25,49.07 h 0.5 L 41,49.5 Z m 3,0 h -0.5 L 43,49.5 43.25,49.07 h 0.5 L 44,49.5 Z m 2,0 h -0.5 L 45,49.5 45.25,49.07 h 0.5 L 46,49.5 Z m 1,0 h -0.5 L 46,49.5 46.25,49.07 h 0.5 L 47,49.5 Z m 1,0 h -0.5 L 47,49.5 47.25,49.07 h 0.5 L 48,49.5 Z m 2,0 h -0.5 L 49,49.5 49.25,49.07 h 0.5 L 50,49.5 Z m 1,0 h -0.5 L 50,49.5 50.25,49.07 h 0.5 L 51,49.5 Z m 1,0 h -0.5 L 51,49.5 51.25,49.07 h 0.5 L 52,49.5 Z M 0,50 h 1 v 1 H 0 Z m 2,0 h 1 v 1 H 2 Z m 1,0 h 1 v 1 H 3 Z m 1,0 h 1 v 1 H 4 Z m 2,0 h 1 v 1 H 6 Z m 2.75,0.93 H 8.25 L 8,50.5 8.25,50.07 h 0.5 L 9,50.5 Z m 1,0 H 9.25 L 9,50.5 9.25,50.07 h 0.5 L 10,50.5 Z m 2,0 h -0.5 L 11,50.5 11.25,50.07 h 0.5 L 12,50.5 Z m 2,0 h -0.5 L 13,50.5 13.25,50.07 h 0.5 L 14,50.5 Z m 4,0 h -0.5 L 17,50.5 17.25,50.07 h 0.5 L 18,50.5 Z m 2,0 h -0.5 L 19,50.5 19.25,50.07 h 0.5 L 20,50.5 Z m 1,0 h -0.5 L 20,50.5 20.25,50.07 h 0.5 L 21,50.5 Z m 1,0 h -0.5 L 21,50.5 21.25,50.07 h 0.5 L 22,50.5 Z m 1,0 h -0.5 L 22,50.5 22.25,50.07 h 0.5 L 23,50.5 Z m 4,0 h -0.5 L 26,50.5 26.25,50.07 h 0.5 L 27,50.5 Z m 1,0 h -0.5 L 27,50.5 27.25,50.07 h 0.5 L 28,50.5 Z m 1,0 h -0.5 L 28,50.5 28.25,50.07 h 0.5 L 29,50.5 Z m 2,0 h -0.5 L 30,50.5 30.25,50.07 h 0.5 L 31,50.5 Z m 2,0 h -0.5 L 32,50.5 32.25,50.07 h 0.5 L 33,50.5 Z m 4,0 h -0.5 L 36,50.5 36.25,50.07 h 0.5 L 37,50.5 Z m 2,0 h -0.5 L 38,50.5 38.25,50.07 h 0.5 L 39,50.5 Z m 2,0 h -0.5 L 40,50.5 40.25,50.07 h 0.5 L 41,50.5 Z m 1,0 h -0.5 L 41,50.5 41.25,50.07 h 0.5 L 42,50.5 Z m 1,0 h -0.5 L 42,50.5 42.25,50.07 h 0.5 L 43,50.5 Z m 3,0 h -0.5 L 45,50.5 45.25,50.07 h 0.5 L 46,50.5 Z m 2,0 h -0.5 L 47,50.5 47.25,50.07 h 0.5 L 48,50.5 Z m 4,0 h -0.5 L 51,50.5 51.25,50.07 h 0.5 L 52,50.5 Z M 0,51 h 1 v 1 H 0 Z m 6,0 h 1 v 1 H 6 Z m 2.75,0.93 H 8.25 L 8,51.5 8.25,51.07 h 0.5 L 9,51.5 Z m 4,0 h -0.5 L 12,51.5 12.25,51.07 h 0.5 L 13,51.5 Z m 3,0 h -0.5 L 15,51.5 15.25,51.07 h 0.5 L 16,51.5 Z m 2,0 h -0.5 L 17,51.5 17.25,51.07 h 0.5 L 18,51.5 Z m 1,0 h -0.5 L 18,51.5 18.25,51.07 h 0.5 L 19,51.5 Z m 3,0 h -0.5 L 21,51.5 21.25,51.07 h 0.5 L 22,51.5 Z m 2,0 h -0.5 L 23,51.5 23.25,51.07 h 0.5 L 24,51.5 Z m 1,0 h -0.5 L 24,51.5 24.25,51.07 h 0.5 L 25,51.5 Z m 2,0 h -0.5 L 26,51.5 26.25,51.07 h 0.5 L 27,51.5 Z m 1,0 h -0.5 L 27,51.5 27.25,51.07 h 0.5 L 28,51.5 Z m 1,0 h -0.5 L 28,51.5 28.25,51.07 h 0.5 L 29,51.5 Z m 6,0 h -0.5 L 34,51.5 34.25,51.07 h 0.5 L 35,51.5 Z m 3,0 h -0.5 L 37,51.5 37.25,51.07 h 0.5 L 38,51.5 Z m 3,0 h -0.5 L 40,51.5 40.25,51.07 h 0.5 L 41,51.5 Z m 1,0 h -0.5 L 41,51.5 41.25,51.07 h 0.5 L 42,51.5 Z m 2,0 h -0.5 L 43,51.5 43.25,51.07 h 0.5 L 44,51.5 Z m 6,0 h -0.5 L 49,51.5 49.25,51.07 h 0.5 L 50,51.5 Z m 2,0 h -0.5 L 51,51.5 51.25,51.07 h 0.5 L 52,51.5 Z M 0,52 h 1 v 1 H 0 Z m 1,0 h 1 v 1 H 1 Z m 1,0 h 1 v 1 H 2 Z m 1,0 h 1 v 1 H 3 Z m 1,0 h 1 v 1 H 4 Z m 1,0 h 1 v 1 H 5 Z m 1,0 h 1 v 1 H 6 Z m 2.75,0.93 H 8.25 L 8,52.5 8.25,52.07 h 0.5 L 9,52.5 Z m 2,0 h -0.5 L 10,52.5 10.25,52.07 h 0.5 L 11,52.5 Z m 1,0 h -0.5 L 11,52.5 11.25,52.07 h 0.5 L 12,52.5 Z m 1,0 h -0.5 L 12,52.5 12.25,52.07 h 0.5 L 13,52.5 Z m 4,0 h -0.5 L 16,52.5 16.25,52.07 h 0.5 L 17,52.5 Z m 9,0 h -0.5 L 25,52.5 25.25,52.07 h 0.5 L 26,52.5 Z m 1,0 h -0.5 L 26,52.5 26.25,52.07 h 0.5 L 27,52.5 Z m 1,0 h -0.5 L 27,52.5 27.25,52.07 h 0.5 L 28,52.5 Z m 5,0 h -0.5 L 32,52.5 32.25,52.07 h 0.5 L 33,52.5 Z m 1,0 h -0.5 L 33,52.5 33.25,52.07 h 0.5 L 34,52.5 Z m 5,0 h -0.5 L 38,52.5 38.25,52.07 h 0.5 L 39,52.5 Z m 3,0 h -0.5 L 41,52.5 41.25,52.07 h 0.5 L 42,52.5 Z m 2,0 h -0.5 L 43,52.5 43.25,52.07 h 0.5 L 44,52.5 Z m 1,0 h -0.5 L 44,52.5 44.25,52.07 h 0.5 L 45,52.5 Z m 3,0 h -0.5 L 47,52.5 47.25,52.07 h 0.5 L 48,52.5 Z m 4,0 h -0.5 L 51,52.5 51.25,52.07 h 0.5 L 52,52.5 Z"
       id="qr-path"
       fill="#000000"
       fill-opacity="1"
       fill-rule="nonzero"
       stroke="none" />
    <g
       id="g13249">
      <rect
         style="fill:#ffffff;stroke-width:1.41"
         id="rect12882"
         width="3.6992228"
         height="3.6001289"
         x="1.633716"
         y="1.730785"
         ry="0" />
      <path
         sodipodi:type="star"
         style="fill:#000000;fill-opacity:1;stroke-width:1.41"
         id="path12880"
         inkscape:flatsided="true"
         sodipodi:sides="6"
         sodipodi:cx="3.4999998"
         sodipodi:cy="2"
         sodipodi:r1="2.236068"
         sodipodi:r2="1.9364916"
         sodipodi:arg1="1.0471976"
         sodipodi:arg2="1.5707963"
         inkscape:rounded="0"
         inkscape:randomized="0"
         d="m 4.6180337,3.9364918 -2.236068,-2e-7 -1.1180339,-1.9364917 1.1180341,-1.93649166 2.236068,1.1e-7 1.1180339,1.93649175 z"
         transform="matrix(0.67147061,0,0,0.67147061,1.149853,2.1568542)" />
    </g>
    <g
       id="g13255"
       transform="translate(46.093264,-0.03105404)">
      <rect
         style="fill:#ffffff;stroke-width:1.41"
         id="rect13251"
         width="3.6992228"
         height="3.6001289"
         x="1.633716"
         y="1.730785"
         ry="0" />
      <path
         sodipodi:type="star"
         style="fill:#000000;fill-opacity:1;stroke-width:1.41"
         id="path13253"
         inkscape:flatsided="true"
         sodipodi:sides="6"
         sodipodi:cx="3.4999998"
         sodipodi:cy="2"
         sodipodi:r1="2.236068"
         sodipodi:r2="1.9364916"
         sodipodi:arg1="1.0471976"
         sodipodi:arg2="1.5707963"
         inkscape:rounded="0"
         inkscape:randomized="0"
         d="m 4.6180337,3.9364918 -2.236068,-2e-7 -1.1180339,-1.9364917 1.1180341,-1.93649166 2.236068,1.1e-7 1.1180339,1.93649175 z"
         transform="matrix(0.67147061,0,0,0.67147061,1.149853,2.1568542)" />
    </g>
    <g
       id="g13261"
       transform="translate(0.00145398,46.000205)">
      <rect
         style="fill:#ffffff;stroke-width:1.41"
         id="rect13257"
         width="3.6992228"
         height="3.6001289"
         x="1.633716"
         y="1.730785"
         ry="0" />
      <path
         sodipodi:type="star"
         style="fill:#000000;fill-opacity:1;stroke-width:1.41"
         id="path13259"
         inkscape:flatsided="true"
         sodipodi:sides="6"
         sodipodi:cx="3.4999998"
         sodipodi:cy="2"
         sodipodi:r1="2.236068"
         sodipodi:r2="1.9364916"
         sodipodi:arg1="1.0471976"
         sodipodi:arg2="1.5707963"
         inkscape:rounded="0"
         inkscape:randomized="0"
         d="m 4.6180337,3.9364918 -2.236068,-2e-7 -1.1180339,-1.9364917 1.1180341,-1.93649166 2.236068,1.1e-7 1.1180339,1.93649175 z"
         transform="matrix(0.67147061,0,0,0.67147061,1.149853,2.1568542)" />
    </g>
  </g>
</svg>
